<svg id="svg" version="1.1" xmlns="http://www.w3.org/2000/svg" xmlns:xlink="http://www.w3.org/1999/xlink" width="400" height="400" viewBox="0, 0, 400,400"><g id="svgg"><path id="path0" d="M87.109 125.583 L 87.000 132.767 80.482 126.383 C 72.974 119.031,73.549 119.249,70.242 122.500 C 68.843 123.875,66.783 125.810,65.663 126.800 C 62.676 129.439,62.753 129.668,68.456 135.140 C 71.127 137.703,74.592 141.131,76.156 142.757 C 77.720 144.383,80.845 147.576,83.100 149.852 L 87.200 153.991 87.200 170.595 C 87.200 188.600,87.230 188.377,85.108 186.400 C 84.636 185.960,84.013 185.600,83.725 185.600 C 83.436 185.600,83.200 185.420,83.200 185.200 C 83.200 184.980,82.880 184.800,82.488 184.800 C 82.097 184.800,81.517 184.440,81.200 184.000 C 80.883 183.560,80.303 183.200,79.912 183.200 C 79.520 183.200,79.200 183.020,79.200 182.800 C 79.200 182.580,78.922 182.400,78.583 182.400 C 78.244 182.400,77.580 182.040,77.108 181.600 C 76.636 181.160,76.013 180.800,75.725 180.800 C 75.436 180.800,75.200 180.620,75.200 180.400 C 75.200 180.180,75.007 180.000,74.772 180.000 C 74.537 180.000,73.559 179.460,72.600 178.800 C 71.641 178.140,70.663 177.600,70.428 177.600 C 70.193 177.600,69.997 177.465,69.993 177.300 C 69.990 177.135,68.910 176.466,67.593 175.814 C 66.277 175.161,65.200 174.486,65.200 174.314 C 65.200 174.141,64.840 174.000,64.400 174.000 C 63.960 174.000,63.600 173.820,63.600 173.600 C 63.600 173.380,63.280 173.200,62.888 173.200 C 62.497 173.200,61.917 172.840,61.600 172.400 C 61.283 171.960,60.703 171.600,60.312 171.600 C 59.920 171.600,59.600 171.420,59.600 171.200 C 59.600 170.980,59.330 170.800,59.000 170.800 C 58.670 170.800,58.400 170.620,58.400 170.400 C 58.400 170.180,58.133 170.000,57.808 170.000 C 57.482 170.000,57.113 169.505,56.988 168.900 C 56.685 167.434,56.033 164.887,55.573 163.372 C 55.368 162.696,55.200 161.661,55.200 161.072 C 55.200 160.482,55.020 160.000,54.800 160.000 C 54.580 160.000,54.400 159.280,54.400 158.400 C 54.400 157.520,54.220 156.800,54.000 156.800 C 53.780 156.800,53.600 156.080,53.600 155.200 C 53.600 154.320,53.420 153.600,53.200 153.600 C 52.980 153.600,52.800 152.981,52.800 152.224 C 52.800 151.467,52.620 150.736,52.400 150.600 C 52.180 150.464,52.000 149.744,52.000 149.000 C 52.000 148.256,51.820 147.536,51.600 147.400 C 51.380 147.264,51.200 146.544,51.200 145.800 C 51.200 145.056,51.020 144.336,50.800 144.200 C 50.580 144.064,50.400 143.333,50.400 142.576 C 50.400 141.819,50.220 141.200,50.000 141.200 C 49.780 141.200,49.600 140.480,49.600 139.600 L 49.600 138.000 47.600 138.000 C 46.500 138.000,45.600 138.180,45.600 138.400 C 45.600 138.620,44.970 138.800,44.200 138.800 C 43.430 138.800,42.800 138.980,42.800 139.200 C 42.800 139.420,42.080 139.600,41.200 139.600 C 40.320 139.600,39.600 139.770,39.600 139.978 C 39.600 140.186,38.745 140.411,37.700 140.478 L 35.800 140.600 35.677 142.300 C 35.604 143.306,35.727 144.000,35.977 144.000 C 36.210 144.000,36.400 144.619,36.400 145.376 C 36.400 146.133,36.580 146.864,36.800 147.000 C 37.020 147.136,37.200 147.856,37.200 148.600 C 37.200 149.344,37.380 150.064,37.600 150.200 C 37.820 150.336,38.000 151.056,38.000 151.800 C 38.000 152.544,38.180 153.264,38.400 153.400 C 38.620 153.536,38.800 154.267,38.800 155.024 C 38.800 155.781,38.980 156.400,39.200 156.400 C 39.420 156.400,39.600 156.940,39.600 157.600 C 39.600 158.260,39.493 158.800,39.362 158.800 C 38.960 158.800,36.608 157.419,36.467 157.100 C 36.393 156.935,36.028 156.800,35.655 156.800 C 35.282 156.800,34.717 156.440,34.400 156.000 C 34.083 155.560,33.503 155.200,33.112 155.200 C 32.720 155.200,32.400 155.020,32.400 154.800 C 32.400 154.580,32.080 154.400,31.688 154.400 C 31.297 154.400,30.717 154.040,30.400 153.600 C 30.083 153.160,29.503 152.800,29.112 152.800 C 28.720 152.800,28.400 152.620,28.400 152.400 C 28.400 151.036,26.472 152.137,25.600 154.000 C 25.085 155.100,24.514 156.000,24.332 156.000 C 24.149 156.000,24.000 156.360,24.000 156.800 C 24.000 157.240,23.820 157.600,23.600 157.600 C 23.380 157.600,23.200 157.788,23.200 158.017 C 23.200 158.246,22.840 158.820,22.400 159.292 C 21.960 159.764,21.600 160.387,21.600 160.675 C 21.600 160.964,21.420 161.200,21.200 161.200 C 20.980 161.200,20.800 161.560,20.800 162.000 C 20.800 162.440,20.620 162.800,20.400 162.800 C 20.180 162.800,20.000 163.160,20.000 163.600 C 20.000 164.040,20.236 164.400,20.525 164.400 C 20.813 164.400,21.436 164.760,21.908 165.200 C 22.380 165.640,23.044 166.000,23.383 166.000 C 23.722 166.000,24.000 166.180,24.000 166.400 C 24.000 166.620,24.236 166.800,24.525 166.800 C 24.813 166.800,25.436 167.160,25.908 167.600 C 26.380 168.040,26.954 168.400,27.183 168.400 C 27.412 168.400,27.600 168.580,27.600 168.800 C 27.600 169.020,27.878 169.200,28.217 169.200 C 28.556 169.200,29.220 169.560,29.692 170.000 C 30.164 170.440,30.787 170.800,31.075 170.800 C 31.754 170.800,31.740 171.118,31.029 171.829 C 30.714 172.143,29.915 172.400,29.252 172.400 C 28.589 172.400,27.936 172.580,27.800 172.800 C 27.664 173.020,26.933 173.200,26.176 173.200 C 25.419 173.200,24.800 173.380,24.800 173.600 C 24.800 173.820,24.080 174.000,23.200 174.000 C 22.320 174.000,21.600 174.154,21.600 174.343 C 21.600 174.532,20.565 174.795,19.300 174.928 C 15.255 175.352,14.400 175.826,14.400 177.639 C 14.400 178.498,14.580 179.200,14.800 179.200 C 15.020 179.200,15.200 179.920,15.200 180.800 C 15.200 181.680,15.380 182.400,15.600 182.400 C 15.820 182.400,16.000 183.120,16.000 184.000 C 16.000 184.880,16.180 185.600,16.400 185.600 C 16.620 185.600,16.800 186.243,16.800 187.029 C 16.800 187.814,17.057 188.714,17.371 189.029 C 18.018 189.675,20.800 189.814,20.800 189.200 C 20.800 188.980,21.419 188.800,22.176 188.800 C 22.933 188.800,23.664 188.620,23.800 188.400 C 23.936 188.180,24.667 188.000,25.424 188.000 C 26.181 188.000,26.800 187.820,26.800 187.600 C 26.800 187.380,27.520 187.200,28.400 187.200 C 29.280 187.200,30.000 187.020,30.000 186.800 C 30.000 186.580,30.720 186.400,31.600 186.400 C 32.480 186.400,33.200 186.220,33.200 186.000 C 33.200 185.780,33.920 185.600,34.800 185.600 C 35.680 185.600,36.400 185.420,36.400 185.200 C 36.400 184.980,37.210 184.800,38.200 184.800 C 39.190 184.800,40.000 184.620,40.000 184.400 C 40.000 184.180,40.720 184.000,41.600 184.000 C 42.480 184.000,43.200 183.820,43.200 183.600 C 43.200 183.380,43.794 183.200,44.520 183.200 C 45.246 183.200,46.022 183.018,46.246 182.794 C 46.752 182.288,50.795 182.167,51.143 182.647 C 51.285 182.842,51.895 183.256,52.500 183.568 C 53.105 183.880,53.600 184.285,53.600 184.468 C 53.600 184.650,53.960 184.800,54.400 184.800 C 54.840 184.800,55.200 184.980,55.200 185.200 C 55.200 185.420,55.436 185.600,55.725 185.600 C 56.013 185.600,56.598 185.925,57.025 186.322 C 57.451 186.720,58.385 187.303,59.100 187.620 C 59.815 187.936,60.400 188.303,60.400 188.435 C 60.400 188.566,61.255 189.106,62.300 189.635 C 63.345 190.163,64.438 190.821,64.729 191.098 C 65.019 191.374,65.604 191.600,66.029 191.600 C 66.453 191.600,66.800 191.780,66.800 192.000 C 66.800 192.220,67.120 192.400,67.512 192.400 C 67.903 192.400,68.483 192.760,68.800 193.200 C 69.117 193.640,69.697 194.000,70.088 194.000 C 70.480 194.000,70.800 194.180,70.800 194.400 C 70.800 194.620,71.120 194.800,71.512 194.800 C 71.903 194.800,72.483 195.160,72.800 195.600 C 73.117 196.040,73.697 196.400,74.088 196.400 C 74.480 196.400,74.800 196.580,74.800 196.800 C 74.800 197.020,74.988 197.200,75.217 197.200 C 75.446 197.200,76.020 197.560,76.492 198.000 C 76.964 198.440,77.587 198.800,77.875 198.800 C 78.164 198.800,78.400 198.980,78.400 199.200 C 78.400 199.420,78.760 199.600,79.200 199.600 C 79.640 199.600,80.000 199.780,80.000 200.000 C 80.000 200.220,79.640 200.400,79.200 200.400 C 78.760 200.400,78.400 200.580,78.400 200.800 C 78.400 201.020,78.164 201.200,77.875 201.200 C 77.587 201.200,76.964 201.560,76.492 202.000 C 76.020 202.440,75.446 202.800,75.217 202.800 C 74.988 202.800,74.800 202.980,74.800 203.200 C 74.800 203.420,74.480 203.600,74.088 203.600 C 73.697 203.600,73.117 203.960,72.800 204.400 C 72.483 204.840,71.903 205.200,71.512 205.200 C 71.120 205.200,70.800 205.380,70.800 205.600 C 70.800 205.820,70.480 206.000,70.088 206.000 C 69.697 206.000,69.117 206.360,68.800 206.800 C 68.483 207.240,67.903 207.600,67.512 207.600 C 67.120 207.600,66.800 207.780,66.800 208.000 C 66.800 208.220,66.451 208.400,66.024 208.400 C 65.597 208.400,65.143 208.568,65.016 208.774 C 64.889 208.980,63.798 209.631,62.592 210.221 C 61.387 210.811,60.400 211.409,60.400 211.549 C 60.400 211.690,59.815 212.064,59.100 212.380 C 58.385 212.697,57.451 213.280,57.025 213.678 C 56.598 214.075,56.013 214.400,55.725 214.400 C 55.436 214.400,55.200 214.580,55.200 214.800 C 55.200 215.020,54.840 215.200,54.400 215.200 C 53.960 215.200,53.600 215.350,53.600 215.532 C 53.600 215.715,53.105 216.120,52.500 216.432 C 51.895 216.744,51.285 217.158,51.143 217.353 C 50.795 217.833,46.752 217.712,46.246 217.206 C 46.022 216.982,45.246 216.800,44.520 216.800 C 43.794 216.800,43.200 216.620,43.200 216.400 C 43.200 216.180,42.480 216.000,41.600 216.000 C 40.720 216.000,40.000 215.820,40.000 215.600 C 40.000 215.380,39.190 215.200,38.200 215.200 C 37.210 215.200,36.400 215.020,36.400 214.800 C 36.400 214.580,35.680 214.400,34.800 214.400 C 33.920 214.400,33.200 214.220,33.200 214.000 C 33.200 213.780,32.480 213.600,31.600 213.600 C 30.720 213.600,30.000 213.420,30.000 213.200 C 30.000 212.980,29.280 212.800,28.400 212.800 C 27.520 212.800,26.800 212.620,26.800 212.400 C 26.800 212.180,26.080 212.000,25.200 212.000 C 24.320 212.000,23.600 211.820,23.600 211.600 C 23.600 211.380,22.981 211.200,22.224 211.200 C 21.467 211.200,20.736 211.020,20.600 210.800 C 19.634 209.237,16.800 210.857,16.800 212.971 C 16.800 213.757,16.620 214.400,16.400 214.400 C 16.180 214.400,16.000 215.120,16.000 216.000 C 16.000 216.880,15.820 217.600,15.600 217.600 C 15.380 217.600,15.200 218.320,15.200 219.200 C 15.200 220.080,15.020 220.800,14.800 220.800 C 14.580 220.800,14.400 221.491,14.400 222.336 C 14.400 224.204,15.157 224.650,18.993 225.043 C 20.427 225.190,21.600 225.466,21.600 225.655 C 21.600 225.845,22.320 226.000,23.200 226.000 C 24.080 226.000,24.800 226.180,24.800 226.400 C 24.800 226.620,25.419 226.800,26.176 226.800 C 26.933 226.800,27.664 226.980,27.800 227.200 C 27.936 227.420,28.589 227.600,29.252 227.600 C 29.915 227.600,30.714 227.857,31.029 228.171 C 31.740 228.882,31.754 229.200,31.075 229.200 C 30.787 229.200,30.164 229.560,29.692 230.000 C 29.220 230.440,28.556 230.800,28.217 230.800 C 27.878 230.800,27.600 230.980,27.600 231.200 C 27.600 231.420,27.412 231.600,27.183 231.600 C 26.954 231.600,26.380 231.960,25.908 232.400 C 25.436 232.840,24.813 233.200,24.525 233.200 C 24.236 233.200,24.000 233.380,24.000 233.600 C 24.000 233.820,23.722 234.000,23.383 234.000 C 23.044 234.000,22.380 234.360,21.908 234.800 C 21.436 235.240,20.813 235.600,20.525 235.600 C 20.236 235.600,20.000 235.960,20.000 236.400 C 20.000 236.840,20.180 237.200,20.400 237.200 C 20.620 237.200,20.800 237.560,20.800 238.000 C 20.800 238.440,20.980 238.800,21.200 238.800 C 21.420 238.800,21.600 239.036,21.600 239.325 C 21.600 239.613,21.960 240.236,22.400 240.708 C 22.840 241.180,23.200 241.754,23.200 241.983 C 23.200 242.212,23.380 242.400,23.600 242.400 C 23.820 242.400,24.000 242.760,24.000 243.200 C 24.000 243.640,24.149 244.000,24.332 244.000 C 24.514 244.000,25.085 244.900,25.600 246.000 C 26.472 247.863,28.400 248.964,28.400 247.600 C 28.400 247.380,28.720 247.200,29.112 247.200 C 29.503 247.200,30.083 246.840,30.400 246.400 C 30.717 245.960,31.297 245.600,31.688 245.600 C 32.080 245.600,32.400 245.420,32.400 245.200 C 32.400 244.980,32.720 244.800,33.112 244.800 C 33.503 244.800,34.083 244.440,34.400 244.000 C 34.717 243.560,35.282 243.200,35.655 243.200 C 36.028 243.200,36.393 243.065,36.467 242.900 C 36.608 242.581,38.960 241.200,39.362 241.200 C 39.493 241.200,39.600 241.740,39.600 242.400 C 39.600 243.060,39.420 243.600,39.200 243.600 C 38.980 243.600,38.800 244.219,38.800 244.976 C 38.800 245.733,38.620 246.464,38.400 246.600 C 38.180 246.736,38.000 247.456,38.000 248.200 C 38.000 248.944,37.820 249.664,37.600 249.800 C 37.380 249.936,37.200 250.656,37.200 251.400 C 37.200 252.144,37.020 252.864,36.800 253.000 C 36.580 253.136,36.400 253.867,36.400 254.624 C 36.400 255.381,36.210 256.000,35.977 256.000 C 35.727 256.000,35.604 256.694,35.677 257.700 L 35.800 259.400 37.700 259.522 C 38.745 259.589,39.600 259.814,39.600 260.022 C 39.600 260.230,40.320 260.400,41.200 260.400 C 42.080 260.400,42.800 260.580,42.800 260.800 C 42.800 261.020,43.430 261.200,44.200 261.200 C 44.970 261.200,45.600 261.380,45.600 261.600 C 45.600 261.820,46.500 262.000,47.600 262.000 L 49.600 262.000 49.600 260.400 C 49.600 259.520,49.780 258.800,50.000 258.800 C 50.220 258.800,50.400 258.181,50.400 257.424 C 50.400 256.667,50.580 255.936,50.800 255.800 C 51.020 255.664,51.200 254.944,51.200 254.200 C 51.200 253.456,51.380 252.736,51.600 252.600 C 51.820 252.464,52.000 251.744,52.000 251.000 C 52.000 250.256,52.180 249.536,52.400 249.400 C 52.620 249.264,52.800 248.533,52.800 247.776 C 52.800 247.019,52.980 246.400,53.200 246.400 C 53.420 246.400,53.600 245.680,53.600 244.800 C 53.600 243.920,53.780 243.200,54.000 243.200 C 54.220 243.200,54.400 242.480,54.400 241.600 C 54.400 240.720,54.580 240.000,54.800 240.000 C 55.020 240.000,55.200 239.518,55.200 238.928 C 55.200 238.339,55.368 237.304,55.573 236.628 C 56.033 235.113,56.685 232.566,56.988 231.100 C 57.113 230.495,57.482 230.000,57.808 230.000 C 58.133 230.000,58.400 229.820,58.400 229.600 C 58.400 229.380,58.670 229.200,59.000 229.200 C 59.330 229.200,59.600 229.020,59.600 228.800 C 59.600 228.580,59.920 228.400,60.312 228.400 C 60.703 228.400,61.283 228.040,61.600 227.600 C 61.917 227.160,62.497 226.800,62.888 226.800 C 63.280 226.800,63.600 226.620,63.600 226.400 C 63.600 226.180,63.960 226.000,64.400 226.000 C 64.840 226.000,65.200 225.838,65.200 225.639 C 65.200 225.441,65.695 225.089,66.300 224.858 C 67.678 224.332,69.757 223.098,69.933 222.700 C 70.007 222.535,70.244 222.400,70.461 222.400 C 70.678 222.400,71.641 221.860,72.600 221.200 C 73.559 220.540,74.537 220.000,74.772 220.000 C 75.007 220.000,75.200 219.820,75.200 219.600 C 75.200 219.380,75.436 219.200,75.725 219.200 C 76.013 219.200,76.636 218.840,77.108 218.400 C 77.580 217.960,78.244 217.600,78.583 217.600 C 78.922 217.600,79.200 217.420,79.200 217.200 C 79.200 216.980,79.520 216.800,79.912 216.800 C 80.303 216.800,80.883 216.440,81.200 216.000 C 81.517 215.560,82.097 215.200,82.488 215.200 C 82.880 215.200,83.200 215.020,83.200 214.800 C 83.200 214.580,83.436 214.400,83.725 214.400 C 84.013 214.400,84.636 214.040,85.108 213.600 C 87.229 211.624,87.200 211.403,87.200 229.376 L 87.200 245.951 81.900 251.415 C 78.985 254.419,75.283 258.165,73.673 259.739 C 72.063 261.313,69.138 264.168,67.173 266.085 C 62.913 270.239,62.823 270.658,65.636 273.200 C 66.732 274.190,68.789 276.125,70.207 277.500 C 73.558 280.749,72.972 280.971,80.482 273.617 L 87.000 267.233 87.109 274.417 L 87.218 281.600 93.809 281.600 L 100.400 281.600 100.400 274.600 C 100.400 270.750,100.480 267.600,100.578 267.600 C 101.093 267.600,112.800 279.153,112.800 279.662 C 112.800 280.862,115.046 279.775,117.507 277.384 C 118.988 275.945,121.055 273.947,122.100 272.944 C 124.759 270.392,125.218 271.082,112.200 258.069 L 100.400 246.274 100.400 229.537 C 100.400 211.389,100.369 211.622,102.492 213.600 C 102.964 214.040,103.587 214.400,103.875 214.400 C 104.164 214.400,104.400 214.580,104.400 214.800 C 104.400 215.020,104.678 215.200,105.017 215.200 C 105.356 215.200,106.020 215.560,106.492 216.000 C 106.964 216.440,107.587 216.800,107.875 216.800 C 108.164 216.800,108.400 216.980,108.400 217.200 C 108.400 217.420,108.670 217.600,109.000 217.600 C 109.330 217.600,109.600 217.759,109.600 217.953 C 109.600 218.148,109.915 218.407,110.300 218.529 C 110.985 218.746,113.204 220.004,113.600 220.400 C 113.996 220.796,116.215 222.054,116.900 222.271 C 117.285 222.393,117.600 222.621,117.600 222.777 C 117.600 222.933,118.680 223.587,119.999 224.230 C 121.319 224.874,122.399 225.535,122.399 225.700 C 122.400 225.865,122.760 226.000,123.200 226.000 C 123.640 226.000,124.000 226.180,124.000 226.400 C 124.000 226.620,124.236 226.800,124.525 226.800 C 124.813 226.800,125.436 227.160,125.908 227.600 C 126.380 228.040,126.954 228.400,127.183 228.400 C 127.412 228.400,127.600 228.580,127.600 228.800 C 127.600 229.020,127.878 229.200,128.218 229.200 C 129.813 229.200,130.861 231.168,131.465 235.303 C 131.586 236.129,131.845 236.905,132.042 237.026 C 132.239 237.148,132.400 237.766,132.400 238.400 C 132.400 239.034,132.580 239.664,132.800 239.800 C 133.020 239.936,133.200 240.757,133.200 241.624 C 133.200 242.491,133.380 243.200,133.600 243.200 C 133.820 243.200,134.000 243.920,134.000 244.800 C 134.000 245.680,134.180 246.400,134.400 246.400 C 134.620 246.400,134.800 247.120,134.800 248.000 C 134.800 248.880,134.980 249.600,135.200 249.600 C 135.420 249.600,135.600 250.320,135.600 251.200 C 135.600 252.080,135.780 252.800,136.000 252.800 C 136.220 252.800,136.400 253.419,136.400 254.176 C 136.400 254.933,136.580 255.664,136.800 255.800 C 137.020 255.936,137.200 256.667,137.200 257.424 C 137.200 258.181,137.380 258.800,137.600 258.800 C 137.820 258.800,138.000 259.520,138.000 260.400 L 138.000 262.000 139.800 262.000 C 140.790 262.000,141.600 261.820,141.600 261.600 C 141.600 261.380,142.500 261.200,143.600 261.200 C 144.700 261.200,145.600 261.020,145.600 260.800 C 145.600 260.580,146.320 260.400,147.200 260.400 C 148.080 260.400,148.800 260.231,148.800 260.024 C 148.800 259.817,149.475 259.592,150.300 259.524 C 151.883 259.393,152.715 257.355,151.629 256.269 C 151.393 256.033,151.200 255.257,151.200 254.544 C 151.200 253.831,151.020 253.136,150.800 253.000 C 150.580 252.864,150.400 252.144,150.400 251.400 C 150.400 250.656,150.220 249.936,150.000 249.800 C 149.780 249.664,149.600 248.944,149.600 248.200 C 149.600 247.456,149.420 246.736,149.200 246.600 C 148.980 246.464,148.800 245.733,148.800 244.976 C 148.800 244.219,148.620 243.600,148.400 243.600 C 148.180 243.600,148.000 243.060,148.000 242.400 C 148.000 241.077,148.428 240.885,149.343 241.800 C 149.673 242.130,150.226 242.400,150.571 242.400 C 150.917 242.400,151.200 242.580,151.200 242.800 C 151.200 243.020,151.520 243.200,151.912 243.200 C 152.303 243.200,152.883 243.560,153.200 244.000 C 153.517 244.440,154.097 244.800,154.488 244.800 C 154.880 244.800,155.200 244.980,155.200 245.200 C 155.200 245.420,155.494 245.600,155.853 245.600 C 156.212 245.600,156.799 245.915,157.157 246.300 C 158.785 248.050,161.200 248.587,161.200 247.200 C 161.200 246.760,161.380 246.400,161.600 246.400 C 161.820 246.400,162.000 246.164,162.000 245.875 C 162.000 245.587,162.360 244.964,162.800 244.492 C 163.240 244.020,163.600 243.356,163.600 243.017 C 163.600 242.678,163.780 242.400,164.000 242.400 C 164.220 242.400,164.400 242.212,164.400 241.983 C 164.400 241.754,164.760 241.180,165.200 240.708 C 165.640 240.236,166.000 239.613,166.000 239.325 C 166.000 239.036,166.180 238.800,166.400 238.800 C 166.620 238.800,166.800 238.440,166.800 238.000 C 166.800 237.560,166.980 237.200,167.200 237.200 C 167.420 237.200,167.600 236.840,167.600 236.400 C 167.600 235.900,167.333 235.600,166.888 235.600 C 166.497 235.600,165.917 235.240,165.600 234.800 C 165.283 234.360,164.703 234.000,164.312 234.000 C 163.920 234.000,163.600 233.820,163.600 233.600 C 163.600 233.380,163.280 233.200,162.888 233.200 C 162.497 233.200,161.917 232.840,161.600 232.400 C 161.283 231.960,160.703 231.600,160.312 231.600 C 159.920 231.600,159.600 231.420,159.600 231.200 C 159.600 230.980,159.330 230.800,159.000 230.800 C 158.670 230.800,158.400 230.620,158.400 230.400 C 158.400 230.180,158.130 230.000,157.800 230.000 C 157.470 230.000,157.200 229.841,157.200 229.647 C 157.200 229.452,156.798 229.188,156.306 229.060 C 155.001 228.718,156.501 227.630,158.300 227.613 C 159.015 227.606,159.600 227.420,159.600 227.200 C 159.600 226.980,160.320 226.800,161.200 226.800 C 162.080 226.800,162.800 226.620,162.800 226.400 C 162.800 226.180,163.520 226.000,164.400 226.000 C 165.280 226.000,166.000 225.845,166.000 225.655 C 166.000 225.466,167.215 225.186,168.700 225.035 C 172.161 224.681,173.200 224.024,173.200 222.191 C 173.200 221.426,173.020 220.800,172.800 220.800 C 172.580 220.800,172.400 220.080,172.400 219.200 C 172.400 218.320,172.220 217.600,172.000 217.600 C 171.780 217.600,171.600 216.880,171.600 216.000 C 171.600 215.120,171.420 214.400,171.200 214.400 C 170.980 214.400,170.794 213.815,170.787 213.100 C 170.769 211.238,169.983 210.400,168.256 210.400 C 167.455 210.400,166.800 210.580,166.800 210.800 C 166.800 211.020,166.080 211.200,165.200 211.200 C 164.320 211.200,163.600 211.380,163.600 211.600 C 163.600 211.820,162.981 212.000,162.224 212.000 C 161.467 212.000,160.736 212.180,160.600 212.400 C 160.464 212.620,159.733 212.800,158.976 212.800 C 158.219 212.800,157.600 212.980,157.600 213.200 C 157.600 213.420,156.880 213.600,156.000 213.600 C 155.120 213.600,154.400 213.780,154.400 214.000 C 154.400 214.220,153.680 214.400,152.800 214.400 C 151.920 214.400,151.200 214.580,151.200 214.800 C 151.200 215.020,150.480 215.200,149.600 215.200 C 148.720 215.200,148.000 215.380,148.000 215.600 C 148.000 215.820,147.381 216.000,146.624 216.000 C 145.867 216.000,145.136 216.180,145.000 216.400 C 144.864 216.620,144.148 216.800,143.410 216.800 C 142.671 216.800,142.007 216.978,141.933 217.196 C 141.766 217.692,136.806 217.834,136.457 217.353 C 136.315 217.158,135.705 216.744,135.100 216.432 C 134.495 216.120,134.000 215.715,134.000 215.532 C 134.000 215.350,133.640 215.200,133.200 215.200 C 132.760 215.200,132.400 215.042,132.400 214.849 C 132.400 214.655,131.860 214.273,131.200 214.000 C 130.540 213.727,130.000 213.345,130.000 213.151 C 130.000 212.958,129.640 212.800,129.200 212.800 C 128.760 212.800,128.400 212.642,128.400 212.449 C 128.400 212.255,127.860 211.873,127.200 211.600 C 126.540 211.327,126.000 210.945,126.000 210.751 C 126.000 210.558,125.816 210.400,125.592 210.400 C 125.368 210.400,124.471 209.950,123.600 209.400 C 122.729 208.850,121.742 208.400,121.408 208.400 C 121.074 208.400,120.800 208.220,120.800 208.000 C 120.800 207.780,120.530 207.600,120.200 207.600 C 119.870 207.600,119.600 207.420,119.600 207.200 C 119.600 206.980,119.330 206.800,119.000 206.800 C 118.670 206.800,118.400 206.620,118.400 206.400 C 118.400 206.180,118.122 206.000,117.783 206.000 C 117.444 206.000,116.780 205.640,116.308 205.200 C 115.836 204.760,115.213 204.400,114.925 204.400 C 114.636 204.400,114.400 204.220,114.400 204.000 C 114.400 203.780,114.122 203.600,113.783 203.600 C 113.444 203.600,112.780 203.240,112.308 202.800 C 111.836 202.360,111.213 202.000,110.925 202.000 C 110.636 202.000,110.400 201.820,110.400 201.600 C 110.400 201.380,110.117 201.200,109.771 201.200 C 109.426 201.200,108.873 200.930,108.543 200.600 C 107.846 199.904,108.600 198.800,109.771 198.800 C 110.117 198.800,110.400 198.620,110.400 198.400 C 110.400 198.180,110.636 198.000,110.925 198.000 C 111.213 198.000,111.836 197.640,112.308 197.200 C 112.780 196.760,113.444 196.400,113.783 196.400 C 114.122 196.400,114.400 196.220,114.400 196.000 C 114.400 195.780,114.636 195.600,114.925 195.600 C 115.213 195.600,115.836 195.240,116.308 194.800 C 116.780 194.360,117.444 194.000,117.783 194.000 C 118.122 194.000,118.400 193.820,118.400 193.600 C 118.400 193.380,118.670 193.200,119.000 193.200 C 119.330 193.200,119.600 193.020,119.600 192.800 C 119.600 192.580,119.870 192.400,120.200 192.400 C 120.530 192.400,120.800 192.220,120.800 192.000 C 120.800 191.780,121.074 191.600,121.408 191.600 C 121.742 191.600,122.729 191.150,123.600 190.600 C 124.471 190.050,125.368 189.600,125.592 189.600 C 125.816 189.600,126.000 189.442,126.000 189.249 C 126.000 189.055,126.540 188.673,127.200 188.400 C 127.860 188.127,128.400 187.745,128.400 187.551 C 128.400 187.358,128.760 187.200,129.200 187.200 C 129.640 187.200,130.000 187.042,130.000 186.849 C 130.000 186.655,130.540 186.273,131.200 186.000 C 131.860 185.727,132.400 185.345,132.400 185.151 C 132.400 184.958,132.760 184.800,133.200 184.800 C 133.640 184.800,134.000 184.650,134.000 184.468 C 134.000 184.285,134.495 183.880,135.100 183.568 C 135.705 183.256,136.315 182.842,136.457 182.647 C 136.806 182.166,141.766 182.308,141.933 182.804 C 142.007 183.022,142.682 183.200,143.433 183.200 C 144.185 183.200,144.800 183.380,144.800 183.600 C 144.800 183.820,145.520 184.000,146.400 184.000 C 147.280 184.000,148.000 184.180,148.000 184.400 C 148.000 184.620,148.720 184.800,149.600 184.800 C 150.480 184.800,151.200 184.980,151.200 185.200 C 151.200 185.420,151.920 185.600,152.800 185.600 C 153.680 185.600,154.400 185.780,154.400 186.000 C 154.400 186.220,155.120 186.400,156.000 186.400 C 156.880 186.400,157.600 186.580,157.600 186.800 C 157.600 187.020,158.219 187.200,158.976 187.200 C 159.733 187.200,160.464 187.380,160.600 187.600 C 160.736 187.820,161.467 188.000,162.224 188.000 C 162.981 188.000,163.600 188.180,163.600 188.400 C 163.600 188.620,164.320 188.800,165.200 188.800 C 166.080 188.800,166.800 188.980,166.800 189.200 C 166.800 189.420,167.455 189.600,168.256 189.600 C 169.983 189.600,170.769 188.762,170.787 186.900 C 170.794 186.185,170.980 185.600,171.200 185.600 C 171.420 185.600,171.600 184.880,171.600 184.000 C 171.600 183.120,171.780 182.400,172.000 182.400 C 172.220 182.400,172.400 181.680,172.400 180.800 C 172.400 179.920,172.591 179.200,172.824 179.200 C 173.070 179.200,173.196 178.569,173.124 177.703 C 172.973 175.882,172.010 175.314,168.442 174.941 C 167.099 174.801,166.000 174.532,166.000 174.343 C 166.000 174.154,165.280 174.000,164.400 174.000 C 163.520 174.000,162.800 173.820,162.800 173.600 C 162.800 173.380,162.080 173.200,161.200 173.200 C 160.320 173.200,159.600 173.020,159.600 172.800 C 159.600 172.580,159.015 172.394,158.300 172.387 C 156.501 172.370,155.001 171.282,156.306 170.940 C 156.798 170.812,157.200 170.548,157.200 170.353 C 157.200 170.159,157.470 170.000,157.800 170.000 C 158.130 170.000,158.400 169.820,158.400 169.600 C 158.400 169.380,158.670 169.200,159.000 169.200 C 159.330 169.200,159.600 169.020,159.600 168.800 C 159.600 168.580,159.920 168.400,160.312 168.400 C 160.703 168.400,161.283 168.040,161.600 167.600 C 161.917 167.160,162.497 166.800,162.888 166.800 C 163.280 166.800,163.600 166.620,163.600 166.400 C 163.600 166.180,163.920 166.000,164.312 166.000 C 164.703 166.000,165.283 165.640,165.600 165.200 C 165.917 164.760,166.497 164.400,166.888 164.400 C 167.333 164.400,167.600 164.100,167.600 163.600 C 167.600 163.160,167.420 162.800,167.200 162.800 C 166.980 162.800,166.800 162.440,166.800 162.000 C 166.800 161.560,166.620 161.200,166.400 161.200 C 166.180 161.200,166.000 160.932,166.000 160.603 C 166.000 160.275,165.640 159.782,165.200 159.507 C 164.760 159.232,164.400 158.691,164.400 158.304 C 164.400 157.917,164.220 157.600,164.000 157.600 C 163.780 157.600,163.600 157.322,163.600 156.983 C 163.600 156.644,163.240 155.980,162.800 155.508 C 162.360 155.036,162.000 154.413,162.000 154.125 C 162.000 153.836,161.820 153.600,161.600 153.600 C 161.380 153.600,161.200 153.240,161.200 152.800 C 161.200 151.413,158.785 151.950,157.157 153.700 C 156.799 154.085,156.212 154.400,155.853 154.400 C 155.494 154.400,155.200 154.580,155.200 154.800 C 155.200 155.020,154.880 155.200,154.488 155.200 C 154.097 155.200,153.517 155.560,153.200 156.000 C 152.883 156.440,152.303 156.800,151.912 156.800 C 151.520 156.800,151.200 156.980,151.200 157.200 C 151.200 157.420,150.917 157.600,150.571 157.600 C 150.226 157.600,149.673 157.870,149.343 158.200 C 148.428 159.115,148.000 158.923,148.000 157.600 C 148.000 156.940,148.180 156.400,148.400 156.400 C 148.620 156.400,148.800 155.781,148.800 155.024 C 148.800 154.267,148.980 153.536,149.200 153.400 C 149.420 153.264,149.600 152.544,149.600 151.800 C 149.600 151.056,149.780 150.336,150.000 150.200 C 150.220 150.064,150.400 149.344,150.400 148.600 C 150.400 147.856,150.580 147.136,150.800 147.000 C 151.020 146.864,151.200 146.169,151.200 145.456 C 151.200 144.743,151.393 143.967,151.629 143.731 C 152.715 142.645,151.883 140.607,150.300 140.476 C 149.475 140.408,148.800 140.183,148.800 139.976 C 148.800 139.769,148.080 139.600,147.200 139.600 C 146.320 139.600,145.600 139.420,145.600 139.200 C 145.600 138.980,144.700 138.800,143.600 138.800 C 142.500 138.800,141.600 138.620,141.600 138.400 C 141.600 138.180,140.790 138.000,139.800 138.000 L 138.000 138.000 138.000 139.600 C 138.000 140.480,137.820 141.200,137.600 141.200 C 137.380 141.200,137.200 141.819,137.200 142.576 C 137.200 143.333,137.020 144.064,136.800 144.200 C 136.580 144.336,136.400 145.067,136.400 145.824 C 136.400 146.581,136.220 147.200,136.000 147.200 C 135.780 147.200,135.600 147.920,135.600 148.800 C 135.600 149.680,135.420 150.400,135.200 150.400 C 134.980 150.400,134.800 151.120,134.800 152.000 C 134.800 152.880,134.620 153.600,134.400 153.600 C 134.180 153.600,134.000 154.320,134.000 155.200 C 134.000 156.080,133.820 156.800,133.600 156.800 C 133.380 156.800,133.200 157.509,133.200 158.376 C 133.200 159.243,133.040 160.052,132.844 160.173 C 132.649 160.294,132.392 160.979,132.273 161.696 C 132.155 162.413,131.854 163.810,131.604 164.800 C 131.355 165.790,131.047 167.129,130.919 167.775 C 130.656 169.107,129.145 170.800,128.218 170.800 C 127.878 170.800,127.600 170.980,127.600 171.200 C 127.600 171.420,127.412 171.600,127.183 171.600 C 126.954 171.600,126.380 171.960,125.908 172.400 C 125.436 172.840,124.813 173.200,124.525 173.200 C 124.236 173.200,124.000 173.380,124.000 173.600 C 124.000 173.820,123.640 174.000,123.200 174.000 C 122.760 174.000,122.400 174.149,122.400 174.330 C 122.400 174.512,121.320 175.187,120.001 175.830 C 118.681 176.474,117.601 177.135,117.601 177.300 C 117.600 177.465,117.240 177.600,116.800 177.600 C 116.360 177.600,116.000 177.750,116.000 177.932 C 116.000 178.115,115.505 178.520,114.900 178.832 C 114.295 179.144,113.710 179.489,113.600 179.599 C 113.206 179.995,110.987 181.254,110.300 181.471 C 109.915 181.593,109.600 181.852,109.600 182.047 C 109.600 182.241,109.330 182.400,109.000 182.400 C 108.670 182.400,108.400 182.580,108.400 182.800 C 108.400 183.020,108.164 183.200,107.875 183.200 C 107.587 183.200,106.964 183.560,106.492 184.000 C 106.020 184.440,105.356 184.800,105.017 184.800 C 104.678 184.800,104.400 184.980,104.400 185.200 C 104.400 185.420,104.164 185.600,103.875 185.600 C 103.587 185.600,102.964 185.960,102.492 186.400 C 100.369 188.378,100.400 188.611,100.400 170.463 L 100.400 153.726 112.200 141.931 C 118.690 135.444,124.000 129.843,124.000 129.485 C 124.000 129.126,123.087 127.971,121.971 126.917 C 120.855 125.862,118.788 123.875,117.378 122.500 C 115.036 120.215,112.800 119.160,112.800 120.338 C 112.800 120.847,101.093 132.400,100.578 132.400 C 100.480 132.400,100.400 129.250,100.400 125.400 L 100.400 118.400 93.809 118.400 L 87.218 118.400 87.109 125.583 M337.800 245.346 C 336.619 246.718,336.396 247.261,337.403 246.312 C 338.038 245.714,338.477 245.147,338.379 245.052 C 338.280 244.958,338.020 245.090,337.800 245.346 M297.661 247.855 C 296.925 248.625,296.396 249.330,296.487 249.420 C 296.578 249.511,297.352 248.869,298.207 247.993 C 299.063 247.117,299.591 246.412,299.381 246.427 C 299.172 246.443,298.397 247.085,297.661 247.855 M333.385 250.100 L 331.400 252.200 333.500 250.215 C 335.451 248.371,335.783 248.000,335.485 248.000 C 335.422 248.000,334.477 248.945,333.385 250.100 M278.655 249.855 C 278.068 250.441,277.670 251.003,277.770 251.103 C 277.870 251.203,278.432 250.805,279.018 250.218 C 279.605 249.632,280.003 249.070,279.903 248.970 C 279.803 248.870,279.241 249.268,278.655 249.855 M351.295 252.231 C 349.477 254.084,348.131 255.600,348.303 255.600 C 348.476 255.600,350.140 254.070,352.000 252.200 C 353.860 250.330,355.206 248.814,354.991 248.831 C 354.776 248.848,353.113 250.378,351.295 252.231 M273.389 255.299 L 270.600 258.199 273.171 255.799 C 274.585 254.480,275.993 253.175,276.299 252.900 C 276.606 252.625,276.704 252.400,276.518 252.400 C 276.331 252.400,274.923 253.705,273.389 255.299 M329.249 254.000 C 328.287 254.880,327.665 255.600,327.868 255.600 C 328.071 255.600,328.941 254.880,329.800 254.000 C 330.659 253.120,331.281 252.400,331.181 252.400 C 331.081 252.400,330.212 253.120,329.249 254.000 M268.871 259.620 C 268.392 260.066,268.000 260.612,268.000 260.834 C 268.000 261.055,268.469 260.767,269.042 260.194 C 270.281 258.956,270.129 258.448,268.871 259.620 M264.471 264.067 C 262.892 265.640,261.600 267.081,261.600 267.270 C 261.600 267.458,262.966 266.246,264.637 264.576 C 266.307 262.906,267.598 261.465,267.507 261.374 C 267.416 261.283,266.050 262.495,264.471 264.067 M174.800 264.800 C 173.810 265.876,172.764 266.766,172.476 266.778 C 172.188 266.790,172.064 266.980,172.200 267.200 C 172.336 267.420,172.161 267.600,171.810 267.600 C 171.069 267.600,168.400 270.146,168.400 270.853 C 168.400 271.117,168.289 271.222,168.152 271.086 C 167.840 270.774,166.800 271.787,166.800 272.403 C 166.800 272.656,166.080 273.554,165.200 274.400 C 164.320 275.246,163.600 276.142,163.600 276.392 C 163.600 276.642,163.420 276.736,163.200 276.600 C 162.980 276.464,162.800 276.633,162.800 276.976 C 162.800 277.319,162.620 277.600,162.400 277.600 C 162.180 277.600,162.000 277.880,162.000 278.222 C 162.000 278.564,161.465 279.416,160.811 280.115 C 160.157 280.815,159.513 281.885,159.379 282.494 C 159.246 283.102,158.971 283.600,158.768 283.600 C 158.566 283.600,158.397 284.095,158.394 284.700 C 158.389 285.557,158.302 285.668,158.000 285.200 C 157.684 284.711,157.611 284.760,157.606 285.467 C 157.603 285.943,157.375 286.438,157.100 286.567 C 156.700 286.753,156.700 286.847,157.100 287.033 C 157.810 287.365,157.734 287.831,156.558 290.360 C 155.985 291.592,155.365 292.960,155.180 293.400 C 154.401 295.250,152.473 301.564,152.065 303.600 C 151.822 304.810,151.445 306.700,151.226 307.800 C 151.008 308.900,150.714 311.240,150.574 313.000 L 150.319 316.200 141.194 325.356 C 134.737 331.834,131.885 334.441,131.440 334.271 C 130.765 334.012,131.232 335.147,132.264 336.277 C 132.520 336.557,132.630 337.164,132.509 337.627 C 132.342 338.265,132.208 338.339,131.951 337.934 C 131.691 337.525,131.611 337.564,131.606 338.100 C 131.603 338.485,131.780 338.800,132.000 338.800 C 132.220 338.800,132.403 339.115,132.406 339.500 C 132.411 340.098,132.469 340.113,132.800 339.600 C 133.101 339.134,133.189 339.251,133.194 340.124 C 133.197 340.772,133.031 341.143,132.800 341.000 C 132.212 340.637,132.313 341.170,132.952 341.810 C 133.256 342.113,133.616 342.250,133.752 342.114 C 133.889 341.978,134.000 342.537,134.000 343.357 C 134.000 344.249,134.161 344.748,134.400 344.600 C 134.620 344.464,134.800 344.618,134.800 344.943 C 134.800 345.268,134.575 345.626,134.300 345.740 C 133.997 345.865,134.155 346.054,134.700 346.220 C 135.195 346.370,135.600 346.652,135.600 346.847 C 135.600 347.798,136.903 346.690,142.946 340.600 C 146.549 336.970,149.609 334.000,149.748 334.000 C 149.887 334.000,150.000 336.160,150.000 338.800 L 150.000 343.600 156.200 343.600 L 162.400 343.600 162.400 335.800 C 162.400 329.632,162.510 328.000,162.925 328.000 C 163.213 328.000,167.005 331.600,171.350 336.000 C 179.947 344.704,180.000 344.743,180.000 342.400 C 180.000 341.520,180.180 340.800,180.400 340.800 C 180.620 340.800,180.800 340.440,180.800 340.000 C 180.800 339.560,180.980 339.200,181.200 339.200 C 181.420 339.200,181.597 338.885,181.594 338.500 C 181.589 337.902,181.531 337.887,181.200 338.400 C 180.913 338.844,180.811 338.597,180.806 337.447 C 180.802 336.350,181.053 335.675,181.661 335.147 C 182.135 334.736,182.315 334.400,182.061 334.400 C 181.496 334.400,181.443 332.144,182.000 331.800 C 183.072 331.138,181.691 329.456,172.800 320.592 C 162.275 310.099,162.442 310.352,163.573 306.628 C 163.778 305.953,164.159 304.590,164.421 303.600 C 165.924 297.901,169.214 290.999,170.890 290.030 C 171.943 289.421,174.400 286.364,174.400 285.663 C 174.400 285.474,174.940 284.754,175.600 284.063 C 176.260 283.372,176.803 282.491,176.806 282.104 C 176.811 281.503,176.869 281.488,177.200 282.000 C 177.583 282.593,177.811 282.135,177.647 281.100 C 177.621 280.935,178.005 280.797,178.500 280.794 C 179.228 280.789,179.285 280.714,178.800 280.400 C 178.292 280.072,178.312 280.011,178.929 280.006 C 179.836 279.998,180.800 279.070,180.800 278.205 C 180.800 277.846,180.964 277.654,181.165 277.778 C 181.366 277.903,182.281 277.283,183.198 276.402 C 184.115 275.521,185.031 274.800,185.233 274.800 C 185.947 274.800,185.604 272.580,184.800 272.000 C 184.360 271.683,184.000 271.175,184.000 270.872 C 184.000 270.569,183.460 269.817,182.800 269.200 C 182.140 268.583,181.600 267.863,181.600 267.600 C 181.600 267.337,181.060 266.617,180.400 266.000 C 179.740 265.383,179.200 264.668,179.200 264.411 C 179.200 262.266,176.948 262.465,174.800 264.800 M338.086 265.454 C 337.583 265.974,337.330 266.400,337.524 266.400 C 337.948 266.400,339.397 264.855,339.164 264.651 C 339.074 264.572,338.589 264.933,338.086 265.454 M206.000 269.576 C 206.000 270.223,206.180 270.864,206.400 271.000 C 206.620 271.136,206.800 271.597,206.800 272.024 C 206.800 272.451,206.980 272.800,207.200 272.800 C 207.420 272.800,207.600 273.149,207.600 273.576 C 207.600 274.003,207.780 274.464,208.000 274.600 C 208.220 274.736,208.401 275.242,208.402 275.724 C 208.404 276.206,208.678 277.124,209.012 277.765 C 209.346 278.405,209.655 279.350,209.697 279.865 C 209.740 280.379,209.915 280.800,210.087 280.800 C 210.259 280.800,210.400 281.419,210.400 282.176 C 210.400 282.933,210.580 283.664,210.800 283.800 C 211.020 283.936,211.200 284.757,211.200 285.624 C 211.200 286.491,211.380 287.200,211.600 287.200 C 211.820 287.200,212.000 288.179,212.000 289.376 C 212.000 290.573,212.180 291.664,212.400 291.800 C 212.648 291.953,212.800 295.604,212.800 301.424 C 212.800 307.408,212.655 310.800,212.400 310.800 C 212.180 310.800,212.000 311.779,212.000 312.976 C 212.000 314.173,211.820 315.264,211.600 315.400 C 211.380 315.536,211.200 316.447,211.200 317.424 C 211.200 318.401,211.020 319.200,210.800 319.200 C 210.580 319.200,210.400 319.579,210.400 320.042 C 210.400 320.756,209.925 322.838,208.904 326.600 C 208.784 327.040,208.605 328.345,208.506 329.500 C 208.407 330.655,208.163 331.600,207.963 331.600 C 207.490 331.600,207.489 338.923,207.961 339.420 C 208.160 339.629,208.427 340.700,208.554 341.800 C 208.869 344.524,208.940 344.801,209.719 346.361 C 210.094 347.110,210.400 347.965,210.400 348.261 C 210.400 348.558,210.538 348.800,210.706 348.800 C 210.874 348.800,211.326 349.527,211.711 350.415 C 212.528 352.300,218.097 357.931,219.700 358.493 C 220.305 358.705,220.800 359.041,220.800 359.239 C 220.800 359.438,221.160 359.600,221.600 359.600 C 222.040 359.600,222.400 359.780,222.400 360.000 C 222.400 360.220,222.250 360.400,222.068 360.400 C 221.885 360.400,221.481 360.895,221.170 361.500 C 220.860 362.105,220.289 362.891,219.903 363.247 C 219.516 363.603,219.200 364.096,219.200 364.343 C 219.200 364.590,216.770 367.223,213.800 370.193 C 208.057 375.935,207.667 376.632,209.200 378.400 C 209.640 378.907,210.000 379.467,210.000 379.643 C 210.000 379.819,210.450 380.414,211.000 380.964 C 211.550 381.514,212.000 382.125,212.000 382.322 C 212.000 382.520,212.495 383.206,213.100 383.848 C 213.705 384.489,214.455 385.506,214.768 386.107 C 215.620 387.749,216.809 387.503,219.161 385.200 C 220.285 384.100,221.349 383.200,221.526 383.200 C 221.947 383.200,226.800 378.074,226.800 377.629 C 226.800 377.441,227.700 376.382,228.800 375.276 C 229.900 374.171,230.800 373.111,230.800 372.921 C 230.800 372.732,231.160 372.317,231.600 372.000 C 232.040 371.683,232.400 371.143,232.400 370.800 C 232.400 370.457,232.760 369.917,233.200 369.600 C 233.640 369.283,234.000 368.703,234.000 368.312 C 234.000 367.920,234.158 367.600,234.351 367.600 C 234.545 367.600,234.927 367.060,235.200 366.400 C 235.473 365.740,235.855 365.200,236.049 365.200 C 236.242 365.200,236.400 364.917,236.400 364.571 C 236.400 363.333,237.474 362.800,239.971 362.800 C 241.324 362.800,242.400 362.623,242.400 362.400 C 242.400 362.180,242.940 362.000,243.600 362.000 C 244.260 362.000,244.800 361.820,244.800 361.600 C 244.800 361.380,245.340 361.200,246.000 361.200 C 246.660 361.200,247.200 361.020,247.200 360.800 C 247.200 360.580,247.560 360.400,248.000 360.400 C 248.440 360.400,248.800 360.247,248.800 360.061 C 248.800 359.874,249.565 359.382,250.500 358.966 C 252.652 358.010,257.949 352.737,259.001 350.505 C 259.441 349.572,259.935 348.807,260.100 348.805 C 260.265 348.802,260.400 348.440,260.400 348.000 C 260.400 347.560,260.580 347.200,260.800 347.200 C 261.020 347.200,261.200 346.660,261.200 346.000 C 261.200 345.340,261.380 344.800,261.600 344.800 C 261.820 344.800,262.000 344.260,262.000 343.600 C 262.000 342.940,262.180 342.400,262.400 342.400 C 262.659 342.400,262.800 337.600,262.800 328.800 C 262.800 320.000,262.659 315.200,262.400 315.200 C 262.180 315.200,262.000 314.300,262.000 313.200 C 262.000 312.100,261.820 311.200,261.600 311.200 C 261.380 311.200,261.200 310.570,261.200 309.800 C 261.200 309.030,261.020 308.400,260.800 308.400 C 260.580 308.400,260.400 307.860,260.400 307.200 C 260.400 306.540,260.220 306.000,260.000 306.000 C 259.780 306.000,259.600 305.460,259.600 304.800 C 259.600 304.140,259.420 303.600,259.200 303.600 C 258.980 303.600,258.800 303.296,258.800 302.924 C 258.800 302.023,255.201 294.800,254.752 294.800 C 254.558 294.800,254.400 294.530,254.400 294.200 C 254.400 293.870,254.220 293.600,254.000 293.600 C 253.780 293.600,253.600 293.312,253.600 292.960 C 253.600 292.609,253.060 291.817,252.400 291.200 C 251.740 290.583,251.200 289.895,251.200 289.670 C 251.200 289.211,243.618 281.501,241.782 280.093 C 239.004 277.962,234.657 275.241,234.342 275.436 C 234.154 275.552,234.000 275.457,234.000 275.224 C 234.000 274.991,233.640 274.800,233.200 274.800 C 232.760 274.800,232.400 274.620,232.400 274.400 C 232.400 274.180,232.040 274.000,231.600 274.000 C 231.160 274.000,230.800 273.820,230.800 273.600 C 230.800 273.380,230.440 273.200,230.000 273.200 C 229.560 273.200,229.200 273.020,229.200 272.800 C 229.200 272.580,228.851 272.400,228.424 272.400 C 227.997 272.400,227.536 272.220,227.400 272.000 C 227.264 271.780,226.713 271.600,226.176 271.600 C 225.639 271.600,225.200 271.420,225.200 271.200 C 225.200 270.980,224.660 270.800,224.000 270.800 C 223.340 270.800,222.800 270.620,222.800 270.400 C 222.800 270.180,222.170 270.000,221.400 270.000 C 220.630 270.000,220.000 269.820,220.000 269.600 C 220.000 269.380,219.100 269.200,218.000 269.200 C 216.900 269.200,216.000 269.020,216.000 268.800 C 216.000 268.555,214.067 268.400,211.000 268.400 L 206.000 268.400 206.000 269.576 " stroke="none" fill="#70924d" fill-rule="evenodd"></path><path id="path1" d="M270.500 46.998 C 270.225 47.311,270.000 47.844,270.000 48.183 C 270.000 48.522,269.820 48.800,269.600 48.800 C 269.380 48.800,269.200 49.160,269.200 49.600 C 269.200 50.040,269.020 50.400,268.800 50.400 C 268.580 50.400,268.400 50.760,268.400 51.200 C 268.400 51.640,268.220 52.000,268.000 52.000 C 267.780 52.000,267.600 52.360,267.600 52.800 C 267.600 53.240,267.420 53.600,267.200 53.600 C 266.980 53.600,266.800 53.949,266.800 54.376 C 266.800 54.803,266.620 55.264,266.400 55.400 C 266.180 55.536,266.000 56.087,266.000 56.624 C 266.000 57.161,265.820 57.600,265.600 57.600 C 265.380 57.600,265.200 57.793,265.200 58.029 C 265.200 58.666,266.253 59.600,266.971 59.600 C 267.317 59.600,267.600 59.780,267.600 60.000 C 267.600 60.220,267.960 60.400,268.400 60.400 C 268.840 60.400,269.200 60.580,269.200 60.800 C 269.200 61.020,269.560 61.200,270.000 61.200 C 270.440 61.200,270.800 61.380,270.800 61.600 C 270.800 61.820,271.160 62.000,271.600 62.000 C 272.040 62.000,272.400 62.180,272.400 62.400 C 272.400 62.620,272.678 62.800,273.017 62.800 C 273.356 62.800,274.020 63.160,274.492 63.600 C 274.964 64.040,275.587 64.400,275.875 64.400 C 276.164 64.400,276.400 64.580,276.400 64.800 C 276.400 65.020,276.670 65.200,277.000 65.200 C 277.330 65.200,277.600 65.380,277.600 65.600 C 277.600 65.820,277.932 66.000,278.338 66.000 C 278.744 66.000,279.402 66.360,279.800 66.800 C 280.198 67.240,280.766 67.600,281.062 67.600 C 281.358 67.600,281.600 67.780,281.600 68.000 C 281.600 68.220,281.920 68.400,282.312 68.400 C 282.703 68.400,283.283 68.760,283.600 69.200 C 283.917 69.640,284.457 70.000,284.800 70.000 C 285.143 70.000,285.676 70.350,285.985 70.779 C 286.293 71.207,286.681 71.473,286.847 71.371 C 287.013 71.269,287.591 71.627,288.132 72.168 C 288.673 72.709,289.224 73.042,289.358 72.909 C 289.491 72.776,289.600 72.907,289.600 73.200 C 289.600 73.493,289.709 73.624,289.842 73.491 C 289.976 73.358,290.524 73.688,291.061 74.224 C 291.597 74.761,292.226 75.200,292.458 75.200 C 292.689 75.200,293.383 75.740,294.000 76.400 C 294.617 77.060,295.333 77.600,295.592 77.600 C 295.851 77.600,296.754 78.320,297.600 79.200 C 298.446 80.080,299.342 80.800,299.592 80.800 C 299.842 80.800,299.936 80.980,299.800 81.200 C 299.664 81.420,299.843 81.600,300.198 81.600 C 300.928 81.600,318.400 98.863,318.400 99.585 C 318.400 99.842,319.300 100.929,320.400 102.000 C 321.500 103.071,322.400 104.113,322.400 104.315 C 322.400 104.516,322.940 105.246,323.600 105.937 C 324.260 106.628,324.800 107.297,324.800 107.425 C 324.800 107.553,325.025 107.892,325.300 108.180 C 326.045 108.958,326.913 110.270,326.940 110.658 C 326.953 110.846,327.380 111.417,327.889 111.926 C 328.399 112.435,328.731 112.987,328.629 113.153 C 328.527 113.319,328.793 113.707,329.221 114.015 C 329.650 114.324,330.000 114.857,330.000 115.200 C 330.000 115.543,330.360 116.083,330.800 116.400 C 331.240 116.717,331.600 117.297,331.600 117.688 C 331.600 118.080,331.780 118.400,332.000 118.400 C 332.220 118.400,332.400 118.636,332.400 118.925 C 332.400 119.213,332.760 119.836,333.200 120.308 C 333.640 120.780,334.000 121.444,334.000 121.783 C 334.000 122.122,334.180 122.400,334.400 122.400 C 334.620 122.400,334.800 122.670,334.800 123.000 C 334.800 123.330,334.980 123.600,335.200 123.600 C 335.420 123.600,335.600 123.836,335.600 124.125 C 335.600 124.413,335.960 125.036,336.400 125.508 C 336.840 125.980,337.200 126.567,337.200 126.812 C 337.200 127.596,338.311 128.400,339.395 128.400 C 339.995 128.400,340.341 128.228,340.200 128.000 C 340.064 127.780,340.323 127.600,340.776 127.600 C 341.229 127.600,341.600 127.420,341.600 127.200 C 341.600 126.980,341.960 126.800,342.400 126.800 C 342.840 126.800,343.200 126.620,343.200 126.400 C 343.200 126.180,343.560 126.000,344.000 126.000 C 344.440 126.000,344.800 125.820,344.800 125.600 C 344.800 125.380,345.066 125.200,345.391 125.200 C 347.089 125.200,350.400 123.030,350.400 121.917 C 350.400 121.303,350.220 120.800,350.000 120.800 C 349.780 120.800,349.600 120.440,349.600 120.000 C 349.600 119.560,349.420 119.200,349.200 119.200 C 348.980 119.200,348.800 118.840,348.800 118.400 C 348.800 117.960,348.620 117.600,348.400 117.600 C 348.180 117.600,348.000 117.255,348.000 116.833 C 348.000 116.412,347.858 116.007,347.686 115.933 C 347.110 115.689,345.600 113.286,345.600 112.615 C 345.600 112.251,345.420 112.064,345.200 112.200 C 344.980 112.336,344.800 112.167,344.800 111.824 C 344.800 111.481,344.620 111.200,344.400 111.200 C 344.180 111.200,344.000 110.932,344.000 110.605 C 344.000 110.057,343.370 109.122,342.100 107.784 C 341.825 107.494,341.600 106.974,341.600 106.629 C 341.600 106.283,341.409 106.000,341.176 106.000 C 340.943 106.000,340.864 105.820,341.000 105.600 C 341.136 105.380,341.069 105.200,340.851 105.200 C 340.632 105.200,340.343 104.849,340.206 104.420 C 340.070 103.992,339.429 103.073,338.781 102.380 C 338.133 101.686,337.683 100.990,337.780 100.832 C 337.877 100.675,337.607 100.293,337.179 99.985 C 336.750 99.676,336.400 99.220,336.400 98.971 C 336.400 98.722,335.903 97.997,335.296 97.359 C 334.688 96.722,333.753 95.570,333.218 94.800 C 332.683 94.030,331.740 92.969,331.122 92.442 C 330.505 91.915,330.000 91.327,330.000 91.135 C 330.000 90.942,328.823 89.574,327.385 88.093 C 323.885 84.488,323.600 84.172,323.600 83.893 C 323.600 83.481,316.654 76.400,316.250 76.400 C 315.821 76.400,315.671 76.270,311.907 72.615 C 310.426 71.177,309.104 70.000,308.968 70.000 C 308.832 70.000,308.244 69.498,307.660 68.885 C 307.077 68.271,305.970 67.328,305.200 66.789 C 304.430 66.250,303.278 65.312,302.641 64.704 C 302.003 64.097,301.278 63.600,301.029 63.600 C 300.780 63.600,300.317 63.240,300.000 62.800 C 299.683 62.360,299.255 62.000,299.049 62.000 C 298.844 62.000,298.086 61.550,297.364 61.000 C 296.643 60.450,295.889 60.000,295.689 60.000 C 295.488 60.000,294.998 59.640,294.600 59.200 C 294.202 58.760,293.610 58.400,293.285 58.400 C 292.960 58.400,292.403 58.084,292.047 57.697 C 291.691 57.311,290.908 56.742,290.307 56.433 C 289.705 56.125,288.858 55.541,288.423 55.136 C 287.989 54.731,287.356 54.400,287.017 54.400 C 286.678 54.400,286.400 54.220,286.400 54.000 C 286.400 53.780,286.080 53.600,285.688 53.600 C 285.297 53.600,284.717 53.240,284.400 52.800 C 284.083 52.360,283.503 52.000,283.112 52.000 C 282.720 52.000,282.400 51.820,282.400 51.600 C 282.400 51.380,282.040 51.200,281.600 51.200 C 281.160 51.200,280.800 51.020,280.800 50.800 C 280.800 50.580,280.440 50.400,280.000 50.400 C 279.560 50.400,279.200 50.220,279.200 50.000 C 279.200 49.780,278.840 49.600,278.400 49.600 C 277.960 49.600,277.600 49.420,277.600 49.200 C 277.600 48.980,277.240 48.800,276.800 48.800 C 276.360 48.800,275.999 48.665,275.997 48.500 C 275.993 48.141,274.056 47.200,273.320 47.200 C 273.034 47.200,272.800 47.020,272.800 46.800 C 272.800 46.199,271.072 46.348,270.500 46.998 M125.600 47.600 C 125.600 47.820,125.240 48.000,124.800 48.000 C 124.360 48.000,124.000 48.180,124.000 48.400 C 124.000 48.620,123.640 48.800,123.200 48.800 C 122.760 48.800,122.400 48.980,122.400 49.200 C 122.400 49.420,122.040 49.600,121.600 49.600 C 121.160 49.600,120.799 49.735,120.797 49.900 C 120.793 50.259,118.856 51.200,118.120 51.200 C 117.834 51.200,117.600 51.380,117.600 51.600 C 117.600 51.820,117.229 52.000,116.776 52.000 C 116.323 52.000,116.045 52.150,116.158 52.332 C 116.271 52.515,115.742 52.909,114.982 53.207 C 114.222 53.505,113.600 53.896,113.600 54.075 C 113.600 54.254,113.322 54.400,112.983 54.400 C 112.644 54.400,111.980 54.760,111.508 55.200 C 111.036 55.640,110.413 56.000,110.125 56.000 C 109.836 56.000,109.600 56.180,109.600 56.400 C 109.600 56.620,109.370 56.800,109.088 56.800 C 108.807 56.800,108.317 57.160,108.000 57.600 C 107.683 58.040,107.201 58.400,106.929 58.400 C 106.356 58.400,103.790 60.013,102.541 61.160 C 102.068 61.593,101.573 61.840,101.441 61.707 C 101.308 61.575,101.200 61.687,101.200 61.957 C 101.200 62.227,101.053 62.356,100.873 62.245 C 100.693 62.134,100.293 62.393,99.985 62.821 C 99.676 63.250,99.208 63.600,98.945 63.600 C 98.683 63.600,97.785 64.320,96.951 65.200 C 96.117 66.080,95.202 66.800,94.918 66.800 C 94.633 66.800,94.400 66.980,94.400 67.200 C 94.400 67.420,94.223 67.600,94.007 67.600 C 93.583 67.600,92.447 68.563,88.819 72.000 C 86.093 74.583,84.885 75.600,84.543 75.600 C 84.218 75.600,75.600 84.216,75.600 84.541 C 75.600 84.870,74.603 86.069,72.400 88.389 C 69.473 91.471,68.400 92.767,68.400 93.220 C 68.400 93.455,68.220 93.536,68.000 93.400 C 67.780 93.264,67.600 93.432,67.600 93.773 C 67.600 94.114,67.240 94.618,66.800 94.893 C 66.360 95.168,66.000 95.585,66.000 95.821 C 66.000 96.057,65.460 96.768,64.800 97.400 C 64.140 98.032,63.600 98.704,63.600 98.893 C 63.600 99.082,63.147 99.690,62.592 100.244 C 62.038 100.798,61.681 101.408,61.799 101.598 C 61.917 101.789,61.830 102.058,61.607 102.196 C 60.875 102.648,61.179 103.454,62.300 104.032 C 62.905 104.345,63.760 104.930,64.200 105.334 C 64.640 105.738,65.531 106.346,66.180 106.686 C 66.830 107.026,67.608 107.550,67.909 107.852 C 68.210 108.153,68.616 108.400,68.810 108.400 C 69.005 108.400,69.614 108.850,70.164 109.400 C 71.763 110.999,75.200 109.691,75.200 107.483 C 75.200 107.284,75.740 106.617,76.400 106.000 C 77.060 105.383,77.600 104.713,77.600 104.510 C 77.600 104.307,78.500 103.178,79.600 102.000 C 80.700 100.822,81.600 99.708,81.600 99.524 C 81.600 99.339,83.085 97.676,84.900 95.827 C 86.715 93.978,88.948 91.686,89.862 90.733 C 92.766 87.706,99.007 81.819,100.022 81.149 C 100.560 80.794,101.710 79.850,102.578 79.052 C 103.446 78.253,104.402 77.600,104.702 77.600 C 105.002 77.600,105.136 77.420,105.000 77.200 C 104.864 76.980,104.994 76.800,105.288 76.800 C 105.583 76.800,106.083 76.440,106.400 76.000 C 106.717 75.560,107.179 75.200,107.426 75.200 C 107.673 75.200,108.399 74.750,109.038 74.200 C 109.677 73.651,110.327 73.201,110.482 73.200 C 110.637 73.200,111.223 72.740,111.785 72.178 C 112.347 71.617,112.952 71.247,113.130 71.357 C 113.309 71.467,113.707 71.207,114.015 70.779 C 114.324 70.350,114.831 70.000,115.141 70.000 C 115.452 70.000,115.997 69.671,116.353 69.270 C 116.709 68.868,117.585 68.284,118.300 67.972 C 119.015 67.660,119.600 67.269,119.600 67.102 C 119.600 66.936,119.870 66.800,120.200 66.800 C 120.530 66.800,120.800 66.620,120.800 66.400 C 120.800 66.180,121.160 66.000,121.600 66.000 C 122.040 66.000,122.400 65.820,122.400 65.600 C 122.400 65.380,122.670 65.200,123.000 65.200 C 123.330 65.200,123.600 65.020,123.600 64.800 C 123.600 64.580,123.870 64.400,124.200 64.400 C 124.530 64.400,124.800 64.220,124.800 64.000 C 124.800 63.780,125.070 63.600,125.400 63.600 C 125.730 63.600,126.000 63.420,126.000 63.200 C 126.000 62.980,126.360 62.800,126.800 62.800 C 127.240 62.800,127.600 62.620,127.600 62.400 C 127.600 62.180,127.960 62.000,128.400 62.000 C 128.840 62.000,129.200 61.820,129.200 61.600 C 129.200 61.380,129.560 61.200,130.000 61.200 C 130.440 61.200,130.800 61.020,130.800 60.800 C 130.800 60.580,131.160 60.400,131.600 60.400 C 132.078 60.400,132.418 60.119,132.444 59.700 C 132.534 58.285,132.315 56.996,131.962 56.867 C 131.763 56.793,131.600 56.388,131.600 55.967 C 131.600 55.545,131.465 55.199,131.300 55.197 C 130.941 55.193,130.000 53.256,130.000 52.520 C 130.000 52.234,129.820 52.000,129.600 52.000 C 129.380 52.000,129.200 51.640,129.200 51.200 C 129.200 50.760,129.020 50.400,128.800 50.400 C 128.580 50.400,128.400 50.040,128.400 49.600 C 128.400 49.160,128.220 48.800,128.000 48.800 C 127.780 48.800,127.600 48.440,127.600 48.000 C 127.600 47.413,127.333 47.200,126.600 47.200 C 126.050 47.200,125.600 47.380,125.600 47.600 M306.000 137.600 C 306.000 137.820,305.201 138.000,304.224 138.000 C 303.247 138.000,302.336 138.180,302.200 138.400 C 302.064 138.620,301.603 138.800,301.176 138.800 C 300.749 138.800,300.400 138.980,300.400 139.200 C 300.400 139.420,299.950 139.600,299.400 139.600 C 298.850 139.600,298.400 139.744,298.400 139.920 C 298.400 140.095,297.770 140.467,297.000 140.746 C 296.230 141.024,295.600 141.420,295.600 141.626 C 295.600 141.832,295.261 142.000,294.846 142.000 C 294.431 142.000,293.793 142.456,293.428 143.013 C 293.063 143.570,292.593 143.919,292.382 143.789 C 292.172 143.659,292.000 143.773,292.000 144.043 C 292.000 144.313,291.889 144.422,291.752 144.286 C 291.442 143.976,290.400 144.985,290.400 145.595 C 290.400 145.844,290.220 145.936,290.000 145.800 C 289.780 145.664,289.600 145.756,289.600 146.005 C 289.600 146.615,288.558 147.624,288.248 147.314 C 288.031 147.098,287.993 147.235,288.002 148.202 C 288.003 148.313,287.463 148.969,286.802 149.661 C 286.141 150.353,285.600 151.162,285.600 151.459 C 285.600 151.757,285.465 152.001,285.300 152.003 C 284.941 152.007,284.000 153.944,284.000 154.680 C 284.000 154.966,283.820 155.200,283.600 155.200 C 283.380 155.200,283.200 155.560,283.200 156.000 C 283.200 156.440,283.020 156.800,282.800 156.800 C 282.580 156.800,282.400 157.351,282.400 158.024 C 282.400 158.737,282.233 159.144,282.000 159.000 C 281.758 158.850,281.600 159.404,281.600 160.400 C 281.600 161.396,281.442 161.950,281.200 161.800 C 280.939 161.639,280.800 164.063,280.800 168.776 C 280.800 173.325,280.948 176.000,281.200 176.000 C 281.420 176.000,281.600 176.282,281.600 176.627 C 281.600 177.347,280.824 177.199,278.080 175.956 C 277.134 175.528,276.202 175.275,276.008 175.395 C 275.814 175.515,275.542 175.430,275.404 175.207 C 275.250 174.958,272.592 174.800,268.553 174.800 C 264.567 174.800,262.044 174.948,262.184 175.173 C 262.311 175.379,261.916 175.541,261.307 175.534 C 260.698 175.527,258.890 176.169,257.289 176.961 C 255.689 177.752,254.301 178.400,254.206 178.400 C 254.110 178.400,253.298 179.120,252.400 180.000 C 251.502 180.880,250.619 181.600,250.437 181.600 C 250.255 181.600,249.630 182.320,249.047 183.200 C 248.465 184.080,247.845 184.800,247.669 184.800 C 247.493 184.800,247.102 185.430,246.800 186.200 C 246.498 186.970,246.135 187.600,245.993 187.600 C 245.851 187.600,245.312 188.905,244.796 190.500 C 244.279 192.095,243.708 193.571,243.528 193.780 C 243.133 194.237,243.083 205.750,243.474 206.141 C 243.873 206.539,244.787 209.282,244.794 210.100 C 244.797 210.485,244.980 210.800,245.200 210.800 C 245.420 210.800,245.600 211.132,245.600 211.538 C 245.600 211.944,245.960 212.602,246.400 213.000 C 246.840 213.398,247.200 213.921,247.200 214.162 C 247.201 214.559,247.800 215.369,249.646 217.466 C 251.672 219.769,255.429 222.398,258.400 223.592 C 259.170 223.901,259.928 224.345,260.085 224.577 C 260.283 224.870,276.086 225.035,311.285 225.114 L 362.200 225.227 364.800 224.361 C 368.013 223.291,372.273 220.590,374.285 218.347 C 375.118 217.418,376.160 216.275,376.600 215.807 C 377.040 215.339,377.642 214.536,377.938 214.023 C 379.649 211.054,380.000 210.299,380.000 209.588 C 380.000 209.155,380.180 208.800,380.400 208.800 C 380.620 208.800,380.800 208.260,380.800 207.600 C 380.800 206.940,380.980 206.400,381.200 206.400 C 381.450 206.400,381.600 204.008,381.600 200.024 C 381.600 196.204,381.440 193.548,381.200 193.400 C 380.980 193.264,380.800 192.713,380.800 192.176 C 380.800 191.639,380.620 191.200,380.400 191.200 C 380.180 191.200,380.000 190.765,380.000 190.233 C 380.000 189.702,379.865 189.207,379.700 189.133 C 379.535 189.060,378.953 188.100,378.407 187.000 C 377.861 185.900,377.096 184.709,376.707 184.353 C 376.318 183.997,376.000 183.588,376.000 183.444 C 376.000 181.724,364.917 174.586,363.554 175.428 C 363.390 175.530,363.142 175.430,363.004 175.207 C 362.663 174.655,350.134 174.659,349.793 175.211 C 349.654 175.436,349.328 175.586,349.070 175.544 C 348.216 175.403,345.600 176.082,345.600 176.445 C 345.600 176.640,345.276 176.800,344.880 176.800 C 344.484 176.800,343.944 177.016,343.680 177.280 C 343.307 177.653,343.200 177.564,343.200 176.880 C 343.200 176.396,343.380 176.000,343.600 176.000 C 344.109 176.000,344.145 162.269,343.639 161.295 C 343.440 160.913,343.041 159.790,342.752 158.800 C 342.463 157.810,342.004 156.563,341.733 156.029 C 341.463 155.494,341.332 154.909,341.444 154.729 C 341.556 154.548,341.490 154.400,341.299 154.400 C 341.107 154.400,340.574 153.545,340.116 152.500 C 339.657 151.455,338.813 150.164,338.241 149.630 C 337.668 149.097,337.200 148.422,337.200 148.130 C 337.200 147.839,337.020 147.600,336.800 147.600 C 336.580 147.600,336.400 147.319,336.400 146.976 C 336.400 146.633,336.247 146.447,336.061 146.562 C 335.875 146.677,335.170 146.148,334.495 145.386 C 333.820 144.624,333.116 144.000,332.930 144.000 C 332.744 144.000,332.107 143.550,331.513 143.000 C 330.920 142.450,330.157 142.000,329.817 142.000 C 329.478 142.000,329.200 141.820,329.200 141.600 C 329.200 141.380,328.919 141.200,328.576 141.200 C 328.191 141.200,328.063 141.009,328.241 140.700 C 328.399 140.425,328.384 140.330,328.208 140.489 C 328.032 140.649,327.418 140.536,326.844 140.238 C 326.270 139.941,325.260 139.475,324.600 139.202 C 323.940 138.930,323.087 138.548,322.705 138.353 C 322.323 138.159,321.479 138.000,320.829 138.000 C 320.179 138.000,319.536 137.820,319.400 137.600 C 319.251 137.360,316.529 137.200,312.576 137.200 C 308.459 137.200,306.000 137.350,306.000 137.600 M267.102 241.580 C 265.667 243.109,264.428 244.304,264.347 244.235 C 264.266 244.167,263.337 244.986,262.283 246.055 C 261.229 247.125,260.456 248.000,260.567 248.000 C 260.678 248.000,258.602 250.158,255.954 252.797 C 253.306 255.435,251.199 257.852,251.270 258.169 C 251.721 260.164,261.600 268.856,261.600 267.258 C 261.600 267.070,262.875 265.675,264.433 264.158 C 265.991 262.641,267.476 261.162,267.733 260.872 C 267.990 260.581,268.531 260.041,268.935 259.672 C 271.229 257.575,276.800 251.781,276.800 251.492 C 276.800 251.306,276.980 251.264,277.200 251.400 C 277.420 251.536,277.600 251.472,277.600 251.258 C 277.600 251.043,278.140 250.358,278.800 249.735 C 280.477 248.152,280.501 248.200,275.560 243.249 C 270.321 237.999,270.439 238.022,267.102 241.580 M305.745 240.500 C 304.851 241.435,301.797 244.482,298.959 247.272 C 291.933 254.178,288.800 257.521,288.802 258.107 C 288.805 258.826,297.427 267.600,298.131 267.600 C 298.828 267.600,317.600 248.904,317.600 248.210 C 317.600 247.790,316.002 246.130,310.179 240.500 C 309.212 239.565,308.185 238.800,307.897 238.800 C 307.608 238.800,306.640 239.565,305.745 240.500 M340.600 243.003 C 338.400 245.307,336.418 247.194,336.195 247.196 C 335.972 247.198,335.605 247.605,335.380 248.100 C 335.155 248.595,334.752 248.955,334.485 248.900 C 334.218 248.845,334.045 249.025,334.100 249.300 C 334.155 249.575,333.975 249.755,333.700 249.700 C 333.425 249.645,333.245 249.825,333.300 250.100 C 333.355 250.375,333.175 250.555,332.900 250.500 C 332.625 250.445,332.445 250.610,332.500 250.867 C 332.555 251.124,332.184 251.552,331.675 251.817 C 331.166 252.082,330.716 252.457,330.675 252.649 C 330.634 252.842,330.452 252.951,330.270 252.890 C 330.089 252.830,330.042 252.945,330.167 253.146 C 330.291 253.347,329.539 254.273,328.496 255.203 C 325.393 257.973,325.370 257.885,330.471 263.054 C 334.444 267.082,336.400 268.449,336.400 267.200 C 336.400 266.980,336.700 266.800,337.067 266.800 C 337.433 266.800,337.624 266.691,337.491 266.558 C 337.188 266.254,339.005 264.400,339.605 264.400 C 339.848 264.400,339.936 264.220,339.800 264.000 C 339.664 263.780,339.844 263.600,340.200 263.600 C 340.556 263.600,340.776 263.465,340.689 263.300 C 340.485 262.915,345.884 257.617,346.179 257.912 C 346.301 258.034,346.400 257.823,346.400 257.443 C 346.400 257.063,346.580 256.864,346.800 257.000 C 347.020 257.136,347.200 256.956,347.200 256.600 C 347.200 256.244,347.380 256.064,347.600 256.200 C 347.820 256.336,348.000 256.250,348.000 256.008 C 348.000 255.767,349.620 253.963,351.600 252.000 C 355.860 247.776,355.746 248.348,352.896 245.525 C 344.662 237.369,345.764 237.595,340.600 243.003 M334.000 278.400 C 334.000 278.840,333.848 279.200,333.663 279.200 C 333.477 279.200,332.896 280.055,332.370 281.100 C 331.844 282.145,331.141 283.270,330.807 283.600 C 330.473 283.930,330.144 284.459,330.075 284.775 C 330.006 285.091,329.646 285.631,329.275 285.975 C 328.904 286.319,328.544 286.859,328.475 287.175 C 328.406 287.491,327.974 288.076,327.514 288.475 C 327.054 288.874,326.810 289.200,326.972 289.200 C 327.135 289.200,326.712 289.901,326.034 290.758 C 325.355 291.614,324.800 292.450,324.800 292.614 C 324.800 292.779,324.260 293.429,323.600 294.060 C 322.940 294.691,322.400 295.385,322.400 295.603 C 322.400 295.822,322.220 296.000,322.000 296.000 C 321.780 296.000,321.600 296.180,321.600 296.399 C 321.600 296.619,320.880 297.563,320.000 298.497 C 319.120 299.431,318.400 300.342,318.400 300.520 C 318.400 300.698,317.320 301.904,316.000 303.200 C 314.680 304.496,313.600 305.776,313.600 306.045 C 313.600 306.313,313.487 306.420,313.349 306.283 C 313.211 306.145,312.356 306.868,311.449 307.890 C 310.542 308.912,309.274 310.209,308.632 310.774 C 307.990 311.338,305.967 313.285,304.138 315.100 C 302.308 316.915,300.674 318.403,300.506 318.406 C 300.338 318.410,299.219 319.310,298.021 320.406 C 296.822 321.503,295.597 322.400,295.297 322.400 C 294.998 322.400,294.847 322.553,294.963 322.740 C 295.078 322.927,294.729 323.317,294.186 323.607 C 293.644 323.898,293.200 324.285,293.200 324.468 C 293.200 324.650,293.008 324.800,292.773 324.800 C 292.539 324.800,291.757 325.250,291.036 325.800 C 290.314 326.350,289.583 326.800,289.409 326.800 C 289.236 326.800,288.803 327.116,288.447 327.503 C 288.091 327.889,287.305 328.460,286.700 328.770 C 286.095 329.081,285.600 329.485,285.600 329.668 C 285.600 329.850,285.306 330.000,284.947 330.000 C 284.588 330.000,284.003 330.329,283.647 330.730 C 283.291 331.132,282.428 331.710,281.729 332.015 C 281.030 332.320,280.527 332.681,280.611 332.817 C 280.695 332.954,280.144 333.308,279.386 333.606 C 277.268 334.436,277.196 336.627,279.208 339.000 C 279.581 339.440,280.136 340.385,280.441 341.100 C 280.746 341.815,281.131 342.400,281.298 342.400 C 281.464 342.400,281.600 342.760,281.600 343.200 C 281.600 343.640,281.758 344.000,281.951 344.000 C 282.145 344.000,282.527 344.540,282.800 345.200 C 283.073 345.860,283.590 346.429,283.949 346.463 C 285.033 346.569,286.152 346.397,286.383 346.090 C 286.502 345.931,286.960 345.603,287.400 345.362 C 289.805 344.047,291.022 343.228,292.149 342.167 C 292.401 341.930,293.101 341.611,293.704 341.460 C 294.307 341.309,294.800 341.030,294.800 340.841 C 294.800 340.652,295.340 340.273,296.000 340.000 C 296.660 339.727,297.200 339.374,297.200 339.216 C 297.200 339.058,297.655 338.721,298.210 338.468 C 298.766 338.215,299.621 337.648,300.110 337.209 C 302.336 335.209,303.944 334.000,304.376 334.000 C 304.635 334.000,304.736 333.820,304.600 333.600 C 304.464 333.380,304.556 333.200,304.805 333.200 C 305.054 333.200,305.486 332.975,305.765 332.700 C 306.045 332.425,306.873 331.750,307.606 331.200 C 308.339 330.650,310.176 328.985,311.689 327.500 C 313.201 326.015,314.595 324.800,314.785 324.800 C 314.975 324.800,316.080 323.900,317.239 322.800 C 318.399 321.700,319.494 320.800,319.674 320.800 C 319.853 320.800,320.000 320.645,320.000 320.455 C 320.000 320.265,321.170 318.911,322.600 317.445 C 324.030 315.979,325.200 314.601,325.200 314.383 C 325.200 314.164,326.325 312.852,327.700 311.468 C 329.075 310.084,330.650 308.346,331.200 307.606 C 331.750 306.867,332.605 305.851,333.100 305.349 C 333.595 304.847,334.000 304.337,334.000 304.215 C 334.000 304.093,334.540 303.428,335.200 302.737 C 335.860 302.046,336.400 301.320,336.400 301.122 C 336.400 300.925,336.850 300.314,337.400 299.764 C 337.950 299.214,338.400 298.619,338.400 298.443 C 338.400 298.267,338.760 297.707,339.200 297.200 C 339.640 296.693,340.000 296.075,340.000 295.828 C 340.000 295.580,340.360 295.070,340.800 294.693 C 341.240 294.316,341.600 293.723,341.600 293.375 C 341.600 293.027,341.825 292.506,342.100 292.216 C 343.252 291.003,343.902 290.071,344.432 288.872 C 344.742 288.172,345.131 287.600,345.298 287.600 C 345.464 287.600,345.600 287.330,345.600 287.000 C 345.600 286.670,345.780 286.400,346.000 286.400 C 346.220 286.400,346.400 285.680,346.400 284.800 C 346.400 283.467,346.267 283.200,345.600 283.200 C 345.160 283.200,344.800 283.020,344.800 282.800 C 344.800 282.580,344.522 282.400,344.183 282.400 C 343.844 282.400,343.180 282.040,342.708 281.600 C 342.236 281.160,341.613 280.800,341.325 280.800 C 341.036 280.800,340.800 280.654,340.800 280.475 C 340.800 280.296,340.170 279.902,339.400 279.600 C 338.630 279.298,338.000 278.933,338.000 278.790 C 338.000 278.369,336.048 277.600,334.981 277.600 C 334.267 277.600,334.000 277.817,334.000 278.400 M71.212 291.183 C 70.902 291.614,70.142 292.175,69.524 292.431 C 68.906 292.688,68.400 293.085,68.400 293.315 C 68.400 293.545,68.283 293.617,68.141 293.474 C 67.998 293.331,67.593 293.526,67.241 293.907 C 66.888 294.288,66.330 294.660,66.000 294.732 C 65.670 294.805,65.259 295.114,65.087 295.420 C 64.915 295.725,64.150 296.271,63.387 296.633 C 61.588 297.487,61.528 298.838,63.220 300.418 C 63.891 301.045,64.412 301.673,64.379 301.815 C 64.345 301.956,64.696 302.507,65.159 303.039 C 65.622 303.571,66.000 304.195,66.000 304.427 C 66.000 304.658,66.180 304.736,66.400 304.600 C 66.620 304.464,66.800 304.734,66.800 305.200 C 66.800 305.666,66.980 305.936,67.200 305.800 C 67.420 305.664,67.600 305.751,67.600 305.992 C 67.600 306.454,68.014 306.929,72.210 311.293 C 73.635 312.774,74.800 314.160,74.800 314.373 C 74.800 314.586,75.115 314.944,75.500 315.168 C 75.885 315.392,76.035 315.581,75.833 315.588 C 75.315 315.605,85.042 325.200,85.577 325.200 C 85.819 325.200,86.994 326.145,88.188 327.300 C 89.382 328.455,91.282 330.210,92.411 331.200 C 93.539 332.190,94.706 333.225,95.003 333.500 C 95.300 333.775,95.736 334.000,95.971 334.000 C 96.207 334.000,96.400 334.180,96.400 334.400 C 96.400 334.620,96.627 334.800,96.904 334.800 C 97.181 334.800,97.632 335.160,97.907 335.600 C 98.182 336.040,98.593 336.400,98.822 336.400 C 99.050 336.400,99.660 336.805,100.178 337.300 C 100.696 337.795,102.034 338.740,103.152 339.400 C 104.270 340.060,105.188 340.746,105.192 340.924 C 105.197 341.102,105.380 341.136,105.600 341.000 C 105.820 340.864,106.000 340.943,106.000 341.176 C 106.000 341.409,106.320 341.600,106.712 341.600 C 107.103 341.600,107.683 341.960,108.000 342.400 C 108.737 343.422,111.200 343.535,111.200 342.547 C 111.200 342.188,111.516 341.603,111.903 341.247 C 112.289 340.891,112.860 340.105,113.170 339.500 C 113.481 338.895,113.885 338.400,114.068 338.400 C 114.250 338.400,114.400 338.130,114.400 337.800 C 114.400 337.470,114.580 337.200,114.800 337.200 C 115.020 337.200,115.200 336.840,115.200 336.400 C 115.200 335.960,115.380 335.600,115.600 335.600 C 115.820 335.600,116.000 335.319,116.000 334.976 C 116.000 334.633,116.180 334.464,116.400 334.600 C 116.620 334.736,116.800 334.477,116.800 334.024 C 116.800 333.571,116.980 333.200,117.200 333.200 C 117.420 333.200,117.600 332.906,117.600 332.547 C 117.600 331.860,115.694 330.001,114.988 330.000 C 114.762 330.000,114.317 329.640,114.000 329.200 C 113.683 328.760,113.103 328.400,112.712 328.400 C 112.320 328.400,112.000 328.257,112.000 328.083 C 112.000 327.908,111.104 327.233,110.008 326.583 C 108.912 325.932,108.012 325.265,108.008 325.100 C 108.004 324.935,107.762 324.800,107.472 324.800 C 107.182 324.800,106.577 324.395,106.129 323.900 C 105.194 322.868,103.685 321.600,103.392 321.600 C 103.282 321.600,102.628 321.060,101.937 320.400 C 101.246 319.740,100.525 319.200,100.335 319.200 C 100.027 319.200,98.522 317.777,90.999 310.370 C 89.898 309.287,88.773 308.400,88.499 308.400 C 88.225 308.400,88.000 308.155,88.000 307.855 C 88.000 307.555,86.560 305.842,84.800 304.049 C 83.040 302.256,81.600 300.612,81.600 300.396 C 81.600 300.180,80.700 299.085,79.600 297.961 C 78.500 296.838,77.600 295.749,77.600 295.541 C 77.600 295.334,77.195 294.744,76.700 294.232 C 75.348 292.832,74.380 291.600,74.632 291.600 C 74.756 291.600,74.587 291.330,74.257 291.000 C 73.418 290.160,71.883 290.253,71.212 291.183 " stroke="none" fill="#dcdcdc" fill-rule="evenodd"></path><path id="path2" d="M191.400 50.000 C 191.264 50.220,190.443 50.400,189.576 50.400 C 188.709 50.400,188.000 50.580,188.000 50.800 C 188.000 51.020,187.460 51.200,186.800 51.200 C 186.140 51.200,185.600 51.380,185.600 51.600 C 185.600 51.820,185.060 52.000,184.400 52.000 C 183.740 52.000,183.200 52.180,183.200 52.400 C 183.200 52.620,182.840 52.800,182.400 52.800 C 181.960 52.800,181.600 52.980,181.600 53.200 C 181.600 53.420,181.347 53.600,181.038 53.600 C 180.372 53.600,177.059 55.268,176.867 55.700 C 176.793 55.865,176.518 56.000,176.255 56.000 C 175.992 56.000,175.517 56.360,175.200 56.800 C 174.883 57.240,174.380 57.600,174.083 57.600 C 173.786 57.600,173.290 57.825,172.980 58.100 C 172.671 58.375,171.682 59.230,170.783 60.000 C 167.791 62.562,163.600 67.150,163.600 67.864 C 163.600 68.159,163.453 68.400,163.274 68.400 C 163.095 68.400,162.583 69.075,162.136 69.900 C 161.689 70.725,160.935 72.080,160.462 72.912 C 159.988 73.744,159.600 74.674,159.600 74.979 C 159.600 75.284,159.408 75.597,159.174 75.675 C 158.940 75.753,158.646 76.578,158.522 77.509 C 158.397 78.439,158.138 79.200,157.947 79.200 C 157.756 79.200,157.600 79.740,157.600 80.400 C 157.600 81.060,157.420 81.600,157.200 81.600 C 156.980 81.600,156.800 82.309,156.800 83.176 C 156.800 84.043,156.620 84.864,156.400 85.000 C 156.153 85.152,156.000 88.537,156.000 93.824 C 156.000 99.275,156.146 102.400,156.400 102.400 C 156.620 102.400,156.800 103.109,156.800 103.976 C 156.800 104.843,156.980 105.664,157.200 105.800 C 157.420 105.936,157.600 106.577,157.600 107.224 C 157.600 107.871,157.780 108.400,158.000 108.400 C 158.220 108.400,158.401 108.805,158.402 109.300 C 158.404 109.795,158.674 110.716,159.002 111.346 C 159.331 111.976,159.600 112.741,159.600 113.046 C 159.600 113.351,159.780 113.600,160.000 113.600 C 160.220 113.600,160.400 113.960,160.400 114.400 C 160.400 114.840,160.580 115.200,160.800 115.200 C 161.020 115.200,161.200 115.560,161.200 116.000 C 161.200 116.440,161.380 116.800,161.600 116.800 C 161.820 116.800,162.000 117.025,162.001 117.300 C 162.001 117.575,162.541 118.430,163.200 119.200 C 163.859 119.970,164.399 120.724,164.399 120.875 C 164.400 121.244,169.013 126.000,169.370 126.000 C 169.525 126.000,170.529 126.900,171.600 128.000 C 172.671 129.100,173.790 130.000,174.086 130.000 C 174.381 130.000,174.883 130.360,175.200 130.800 C 175.517 131.240,176.007 131.600,176.288 131.600 C 176.570 131.600,176.800 131.780,176.800 132.000 C 176.800 132.220,177.160 132.400,177.600 132.400 C 178.040 132.400,178.400 132.580,178.400 132.800 C 178.400 133.020,178.760 133.200,179.200 133.200 C 179.640 133.200,180.000 133.380,180.000 133.600 C 180.000 133.820,180.360 134.000,180.800 134.000 C 181.240 134.000,181.600 134.180,181.600 134.400 C 181.600 134.620,181.960 134.800,182.400 134.800 C 182.840 134.800,183.200 134.980,183.200 135.200 C 183.200 135.420,183.740 135.600,184.400 135.600 C 185.060 135.600,185.600 135.780,185.600 136.000 C 185.600 136.220,186.140 136.400,186.800 136.400 C 187.460 136.400,188.000 136.562,188.000 136.760 C 188.000 137.408,191.669 137.694,200.000 137.694 C 208.331 137.694,212.000 137.408,212.000 136.760 C 212.000 136.562,212.540 136.400,213.200 136.400 C 213.860 136.400,214.400 136.220,214.400 136.000 C 214.400 135.780,214.940 135.600,215.600 135.600 C 216.260 135.600,216.800 135.420,216.800 135.200 C 216.800 134.980,217.160 134.800,217.600 134.800 C 218.040 134.800,218.400 134.620,218.400 134.400 C 218.400 134.180,218.760 134.000,219.200 134.000 C 219.640 134.000,220.000 133.820,220.000 133.600 C 220.000 133.380,220.360 133.200,220.800 133.200 C 221.240 133.200,221.600 133.020,221.600 132.800 C 221.600 132.580,221.960 132.400,222.400 132.400 C 222.840 132.400,223.200 132.220,223.200 132.000 C 223.200 131.780,223.430 131.600,223.712 131.600 C 223.993 131.600,224.483 131.240,224.800 130.800 C 225.117 130.360,225.619 130.000,225.914 130.000 C 226.210 130.000,227.329 129.100,228.400 128.000 C 229.471 126.900,230.630 126.000,230.974 126.000 C 231.318 126.000,231.600 125.838,231.600 125.641 C 231.600 125.443,232.500 124.362,233.600 123.239 C 234.700 122.115,235.600 121.017,235.600 120.798 C 235.600 120.579,235.780 120.400,236.000 120.400 C 236.220 120.400,236.400 120.212,236.400 119.983 C 236.400 119.754,236.760 119.180,237.200 118.708 C 237.640 118.236,238.000 117.613,238.000 117.325 C 238.000 117.036,238.180 116.800,238.400 116.800 C 238.620 116.800,238.800 116.440,238.800 116.000 C 238.800 115.560,238.980 115.200,239.200 115.200 C 239.420 115.200,239.600 114.840,239.600 114.400 C 239.600 113.960,239.780 113.600,240.000 113.600 C 240.220 113.600,240.400 113.240,240.400 112.800 C 240.400 112.360,240.569 112.000,240.775 112.000 C 240.982 112.000,241.272 111.190,241.421 110.200 C 241.569 109.210,241.850 108.400,242.045 108.400 C 242.240 108.400,242.400 107.871,242.400 107.224 C 242.400 106.577,242.580 105.936,242.800 105.800 C 243.020 105.664,243.200 104.843,243.200 103.976 C 243.200 103.109,243.380 102.400,243.600 102.400 C 243.854 102.400,244.000 99.275,244.000 93.824 C 244.000 88.537,243.847 85.152,243.600 85.000 C 243.380 84.864,243.200 84.043,243.200 83.176 C 243.200 82.309,243.020 81.600,242.800 81.600 C 242.580 81.600,242.400 81.060,242.400 80.400 C 242.400 79.740,242.220 79.200,242.000 79.200 C 241.780 79.200,241.600 78.733,241.600 78.162 C 241.600 77.591,241.351 76.646,241.046 76.062 C 240.741 75.478,240.069 74.100,239.551 73.000 C 239.034 71.900,238.518 70.910,238.405 70.800 C 238.291 70.690,237.944 70.105,237.632 69.500 C 237.320 68.895,236.915 68.400,236.732 68.400 C 236.550 68.400,236.400 68.148,236.400 67.841 C 236.400 67.533,235.500 66.362,234.400 65.239 C 233.300 64.115,232.400 63.057,232.400 62.886 C 232.400 62.716,232.018 62.312,231.552 61.988 C 231.085 61.665,230.011 60.770,229.164 60.000 C 226.766 57.818,226.470 57.600,225.905 57.600 C 225.614 57.600,225.117 57.240,224.800 56.800 C 224.483 56.360,224.008 56.000,223.745 56.000 C 223.482 56.000,223.207 55.865,223.133 55.700 C 222.941 55.268,219.628 53.600,218.962 53.600 C 218.653 53.600,218.400 53.420,218.400 53.200 C 218.400 52.980,218.040 52.800,217.600 52.800 C 217.160 52.800,216.800 52.620,216.800 52.400 C 216.800 52.180,216.260 52.000,215.600 52.000 C 214.940 52.000,214.400 51.820,214.400 51.600 C 214.400 51.380,213.860 51.200,213.200 51.200 C 212.540 51.200,212.000 51.020,212.000 50.800 C 212.000 50.580,211.291 50.400,210.424 50.400 C 209.557 50.400,208.736 50.220,208.600 50.000 C 208.448 49.754,205.137 49.600,200.000 49.600 C 194.863 49.600,191.552 49.754,191.400 50.000 M248.000 152.229 C 248.000 152.498,248.690 153.170,249.802 153.985 C 250.241 154.306,250.071 153.991,249.425 153.285 C 248.240 151.989,248.000 151.811,248.000 152.229 " stroke="none" fill="#f38b34" fill-rule="evenodd"></path><path id="path3" d="M151.800 287.600 C 151.664 287.820,150.933 288.000,150.176 288.000 C 149.419 288.000,148.800 288.180,148.800 288.400 C 148.800 288.620,148.451 288.800,148.024 288.800 C 147.597 288.800,147.136 288.980,147.000 289.200 C 146.864 289.420,146.403 289.600,145.976 289.600 C 145.549 289.600,145.200 289.780,145.200 290.000 C 145.200 290.220,144.930 290.400,144.600 290.400 C 144.270 290.400,144.000 290.580,144.000 290.800 C 144.000 291.020,143.730 291.200,143.400 291.200 C 143.070 291.200,142.800 291.380,142.800 291.600 C 142.800 291.820,142.536 292.000,142.214 292.000 C 141.649 292.000,136.824 296.547,135.600 298.234 C 134.514 299.730,133.664 301.298,132.800 303.400 C 132.529 304.060,132.148 304.913,131.953 305.295 C 131.759 305.677,131.600 306.406,131.600 306.915 C 131.600 307.424,131.417 308.023,131.194 308.246 C 130.522 308.918,130.858 334.086,131.543 334.314 C 131.859 334.420,135.894 330.674,141.202 325.348 L 150.319 316.200 150.574 313.000 C 150.714 311.240,151.008 308.900,151.226 307.800 C 151.445 306.700,151.822 304.810,152.065 303.600 C 152.473 301.564,154.401 295.250,155.180 293.400 C 155.365 292.960,155.985 291.592,156.558 290.360 C 157.131 289.128,157.600 287.913,157.600 287.660 C 157.600 287.080,152.156 287.023,151.800 287.600 M169.928 290.677 C 168.642 292.137,165.497 299.515,164.420 303.600 C 164.159 304.590,163.778 305.953,163.573 306.628 C 162.442 310.352,162.275 310.099,172.800 320.592 C 178.080 325.856,182.400 330.316,182.400 330.505 C 182.400 330.693,182.580 330.736,182.800 330.600 C 183.020 330.464,183.200 329.733,183.200 328.976 C 183.200 328.219,183.380 327.600,183.600 327.600 C 183.820 327.600,184.000 327.071,184.000 326.424 C 184.000 325.777,184.180 325.136,184.400 325.000 C 184.620 324.864,184.800 324.133,184.800 323.376 C 184.800 322.619,184.958 322.000,185.150 322.000 C 186.343 322.000,186.343 307.706,185.150 306.969 C 184.957 306.850,184.800 306.324,184.800 305.800 C 184.800 305.276,184.620 304.736,184.400 304.600 C 184.180 304.464,184.000 304.003,184.000 303.576 C 184.000 303.149,183.820 302.800,183.600 302.800 C 183.380 302.800,183.200 302.440,183.200 302.000 C 183.200 301.560,183.020 301.200,182.800 301.200 C 182.580 301.200,182.400 301.007,182.400 300.772 C 182.400 299.313,175.745 292.000,174.417 292.000 C 174.188 292.000,174.000 291.820,174.000 291.600 C 174.000 291.380,173.745 291.200,173.433 291.200 C 173.122 291.200,172.807 291.033,172.733 290.830 C 172.449 290.040,170.579 289.939,169.928 290.677 M162.400 335.800 L 162.400 343.600 156.200 343.600 L 150.000 343.600 150.000 338.800 C 150.000 336.160,149.877 334.000,149.728 334.000 C 149.578 334.000,146.828 336.655,143.617 339.900 C 136.167 347.429,136.051 347.529,135.597 346.796 C 135.403 346.481,135.106 346.361,134.937 346.530 C 134.768 346.698,134.848 347.186,135.115 347.613 C 135.382 348.040,135.600 348.662,135.600 348.995 C 135.600 349.328,135.780 349.600,136.000 349.600 C 136.220 349.600,136.400 349.960,136.400 350.400 C 136.400 350.840,136.546 351.200,136.725 351.200 C 136.904 351.200,137.298 351.830,137.600 352.600 C 137.902 353.370,138.296 354.000,138.475 354.000 C 138.654 354.000,138.800 354.270,138.800 354.600 C 138.800 354.930,138.936 355.200,139.102 355.200 C 139.269 355.200,139.626 355.695,139.897 356.300 C 140.167 356.905,140.861 357.940,141.440 358.600 C 142.018 359.260,142.785 360.250,143.144 360.800 C 143.736 361.707,144.560 362.689,146.670 365.000 C 148.190 366.665,152.628 370.292,155.349 372.093 C 156.257 372.694,157.203 373.355,157.451 373.563 C 158.169 374.164,163.746 376.800,164.299 376.800 C 164.574 376.800,164.800 376.980,164.800 377.200 C 164.800 377.420,165.250 377.600,165.800 377.600 C 166.350 377.600,166.800 377.780,166.800 378.000 C 166.800 378.220,167.239 378.400,167.776 378.400 C 168.313 378.400,168.864 378.580,169.000 378.800 C 169.136 379.020,169.676 379.200,170.200 379.200 C 170.724 379.200,171.252 379.360,171.373 379.556 C 171.585 379.899,172.811 380.178,176.200 380.656 C 177.080 380.780,177.971 381.044,178.180 381.241 C 178.389 381.438,180.684 381.600,183.280 381.600 C 188.615 381.600,188.804 381.455,187.200 378.600 C 186.760 377.817,186.400 376.821,186.400 376.388 C 186.400 375.955,186.220 375.600,186.000 375.600 C 185.780 375.600,185.600 375.240,185.600 374.800 C 185.600 374.360,185.420 374.000,185.200 374.000 C 184.980 374.000,184.800 373.460,184.800 372.800 C 184.800 372.140,184.620 371.600,184.400 371.600 C 184.180 371.600,184.000 371.060,184.000 370.400 C 184.000 369.740,183.820 369.200,183.600 369.200 C 183.380 369.200,183.200 368.570,183.200 367.800 C 183.200 367.030,183.020 366.400,182.800 366.400 C 182.580 366.400,182.400 365.590,182.400 364.600 C 182.400 363.610,182.220 362.800,182.000 362.800 C 181.780 362.800,181.600 361.911,181.600 360.824 C 181.600 359.737,181.420 358.736,181.200 358.600 C 180.953 358.447,180.800 354.996,180.800 349.576 C 180.800 343.992,180.655 340.800,180.400 340.800 C 180.180 340.800,180.000 341.520,180.000 342.400 C 180.000 344.743,179.947 344.704,171.350 336.000 C 167.005 331.600,163.213 328.000,162.925 328.000 C 162.510 328.000,162.400 329.632,162.400 335.800 M181.867 331.867 C 181.445 332.288,181.556 334.400,182.000 334.400 C 182.220 334.400,182.400 333.770,182.400 333.000 C 182.400 331.561,182.327 331.406,181.867 331.867 M180.806 337.300 C 180.811 338.545,180.916 338.839,181.200 338.400 C 181.710 337.610,181.710 335.600,181.200 335.600 C 180.980 335.600,180.803 336.365,180.806 337.300 M131.606 336.700 C 131.616 337.856,132.252 338.609,132.479 337.734 C 132.584 337.330,132.594 336.775,132.502 336.500 C 132.250 335.752,131.599 335.897,131.606 336.700 M132.630 339.867 C 132.489 340.234,132.560 340.720,132.787 340.947 C 133.071 341.231,133.200 341.023,133.200 340.280 C 133.200 339.046,133.000 338.901,132.630 339.867 M133.569 342.100 C 133.316 342.927,133.344 343.642,133.636 343.822 C 133.836 343.946,134.000 343.587,134.000 343.024 C 134.000 342.209,133.720 341.608,133.569 342.100 " stroke="none" fill="#c38c6c" fill-rule="evenodd"></path><path id="path4" d="M193.476 12.257 C 193.324 12.409,193.200 16.823,193.200 22.067 L 193.200 31.600 200.007 31.600 L 206.814 31.600 206.707 21.900 L 206.600 12.200 200.176 12.090 C 196.643 12.030,193.628 12.105,193.476 12.257 M144.926 35.225 C 143.427 36.779,141.435 38.844,140.500 39.814 C 138.163 42.241,138.056 42.024,145.016 48.984 C 152.302 56.270,151.607 56.079,155.595 51.900 C 157.328 50.085,159.297 48.020,159.973 47.311 C 161.769 45.425,161.741 45.375,155.070 38.613 C 147.962 31.409,148.451 31.573,144.926 35.225 M244.996 38.610 C 238.064 45.559,238.157 45.368,240.500 47.748 C 241.435 48.697,243.432 50.762,244.938 52.337 C 248.447 56.007,247.828 56.215,255.016 48.952 C 261.799 42.098,261.765 42.158,259.900 40.228 C 259.185 39.489,257.213 37.425,255.518 35.642 C 251.602 31.523,252.249 31.341,244.996 38.610 M118.400 93.800 L 118.400 100.400 128.200 100.400 L 138.000 100.400 138.000 93.800 L 138.000 87.200 128.200 87.200 L 118.400 87.200 118.400 93.800 M262.000 93.800 L 262.000 100.400 271.800 100.400 L 281.600 100.400 281.600 93.800 L 281.600 87.200 271.800 87.200 L 262.000 87.200 262.000 93.800 M245.335 134.762 C 240.814 139.336,238.800 141.636,238.800 142.225 C 238.800 142.945,251.122 155.200,251.846 155.200 C 252.284 155.200,255.216 152.358,259.983 147.311 C 261.761 145.429,261.755 145.419,254.938 138.633 C 247.720 131.449,248.356 131.705,245.335 134.762 M193.200 165.600 L 193.200 175.200 200.000 175.200 L 206.800 175.200 206.800 165.600 L 206.800 156.000 200.000 156.000 L 193.200 156.000 193.200 165.600 " stroke="none" fill="#fcdc8c" fill-rule="evenodd"></path></g></svg>